<svg width="196" height="144" viewBox="0 0 196 144" fill="none" xmlns="http://www.w3.org/2000/svg">
<g filter="url(#filter0_d_2_382)">
<rect x="50" y="38" width="95.9147" height="44" rx="22" fill="white" shape-rendering="crispEdges"/>
<ellipse opacity="0.1" cx="71.4574" cy="60" rx="9.45736" ry="10" fill="#8D59FC"/>
<path fill-rule="evenodd" clip-rule="evenodd" d="M71.2504 56.8658C71.2894 56.7121 71.3845 56.5811 71.5148 56.5015C71.6451 56.422 71.7999 56.4004 71.9453 56.4416L75.0458 57.32C75.1912 57.3612 75.3151 57.4618 75.3903 57.5996C75.4655 57.7373 75.4859 57.9011 75.447 58.0548L74.6162 61.3332C74.5752 61.4844 74.4797 61.6126 74.3502 61.6901C74.2207 61.7676 74.0676 61.7881 73.9239 61.7474C73.7802 61.7067 73.6573 61.6079 73.5818 61.4724C73.5063 61.3368 73.4842 61.1753 73.5202 61.0227L73.9964 59.1433L68.3028 62.6191C68.1725 62.6987 68.0176 62.7202 67.8723 62.679C67.7269 62.6379 67.603 62.5373 67.5277 62.3995C67.4525 62.2617 67.4321 62.0979 67.471 61.9442C67.51 61.7905 67.6051 61.6594 67.7354 61.5799L73.429 58.1041L71.6516 57.6005C71.5063 57.5593 71.3823 57.4587 71.3071 57.321C71.2319 57.1832 71.2115 57.0194 71.2504 56.8658V56.8658Z" fill="#8D59FC"/>
<path d="M92.5337 66.893V65.234H94.2207V66.893H92.5337ZM92.5337 55.693V54.034H94.2207V55.693H92.5337ZM93.4157 65.71C92.7064 65.71 92.0717 65.5793 91.5117 65.318C90.9517 65.0567 90.4921 64.688 90.1327 64.212C89.7781 63.736 89.5517 63.1713 89.4537 62.518L91.1197 62.252C91.2504 62.826 91.5304 63.2833 91.9597 63.624C92.3937 63.96 92.9117 64.128 93.5137 64.128C94.0924 64.128 94.5684 63.9927 94.9417 63.722C95.3151 63.4467 95.5017 63.099 95.5017 62.679C95.5017 62.385 95.4131 62.147 95.2357 61.965C95.0584 61.7783 94.7737 61.6243 94.3817 61.503L91.9527 60.747C90.5387 60.3083 89.8317 59.4497 89.8317 58.171C89.8317 57.5737 89.9741 57.0533 90.2587 56.61C90.5481 56.162 90.9541 55.819 91.4767 55.581C91.9994 55.3383 92.6154 55.2193 93.3247 55.224C93.9827 55.2287 94.5684 55.3477 95.0817 55.581C95.5997 55.8143 96.0291 56.1503 96.3697 56.589C96.7151 57.0277 96.9601 57.555 97.1047 58.171L95.3757 58.486C95.3104 58.1547 95.1821 57.863 94.9907 57.611C94.7994 57.359 94.5591 57.163 94.2697 57.023C93.9804 56.883 93.6584 56.8083 93.3037 56.799C92.9631 56.7943 92.6574 56.848 92.3867 56.96C92.1161 57.0673 91.9014 57.2213 91.7427 57.422C91.5841 57.618 91.5047 57.8397 91.5047 58.087C91.5047 58.3623 91.6144 58.598 91.8337 58.794C92.0577 58.99 92.4101 59.158 92.8907 59.298L94.7037 59.823C95.5764 60.075 96.2041 60.418 96.5867 60.852C96.9741 61.2813 97.1677 61.853 97.1677 62.567C97.1677 63.1923 97.0114 63.7407 96.6987 64.212C96.3861 64.6833 95.9474 65.052 95.3827 65.318C94.8181 65.5793 94.1624 65.71 93.4157 65.71ZM101.423 65.71C100.909 65.71 100.431 65.605 99.9877 65.395C99.5444 65.1803 99.1617 64.8863 98.8397 64.513C98.5224 64.1397 98.2937 63.7057 98.1537 63.211L99.7777 62.777C99.8431 63.0477 99.9621 63.281 100.135 63.477C100.312 63.673 100.517 63.8247 100.751 63.932C100.989 64.0393 101.234 64.093 101.486 64.093C101.812 64.093 102.111 64.0137 102.382 63.855C102.652 63.6963 102.867 63.484 103.026 63.218C103.184 62.9473 103.264 62.6487 103.264 62.322C103.264 61.9953 103.182 61.699 103.019 61.433C102.86 61.1623 102.645 60.95 102.375 60.796C102.104 60.6373 101.808 60.558 101.486 60.558C101.098 60.558 100.776 60.628 100.52 60.768C100.268 60.908 100.074 61.0573 99.9387 61.216L98.4967 60.754L98.8047 55.42H104.279V57.002H99.7077L100.338 56.407L100.114 60.117L99.8057 59.739C100.067 59.501 100.37 59.3237 100.716 59.207C101.061 59.0903 101.395 59.032 101.717 59.032C102.347 59.032 102.904 59.1767 103.39 59.466C103.88 59.7507 104.262 60.1403 104.538 60.635C104.818 61.1297 104.958 61.692 104.958 62.322C104.958 62.952 104.794 63.5237 104.468 64.037C104.141 64.5457 103.709 64.9517 103.173 65.255C102.641 65.5583 102.057 65.71 101.423 65.71ZM109.682 65.71C109.015 65.71 108.422 65.5747 107.904 65.304C107.386 65.0333 106.98 64.6577 106.686 64.177C106.392 63.6963 106.245 63.1457 106.245 62.525C106.245 61.9697 106.373 61.454 106.63 60.978C106.887 60.502 107.262 60.1217 107.757 59.837L107.722 60.376C107.335 60.082 107.034 59.7437 106.819 59.361C106.609 58.9737 106.504 58.5397 106.504 58.059C106.504 57.4803 106.639 56.9787 106.91 56.554C107.185 56.1293 107.561 55.8003 108.037 55.567C108.513 55.329 109.061 55.21 109.682 55.21C110.303 55.21 110.851 55.329 111.327 55.567C111.808 55.8003 112.183 56.1293 112.454 56.554C112.729 56.9787 112.867 57.4803 112.867 58.059C112.867 58.5397 112.764 58.9713 112.559 59.354C112.358 59.7367 112.053 60.082 111.642 60.39L111.635 59.844C112.12 60.1193 112.491 60.4973 112.748 60.978C113.009 61.454 113.14 61.9697 113.14 62.525C113.14 63.1457 112.991 63.6963 112.692 64.177C112.398 64.6577 111.99 65.0333 111.467 65.304C110.949 65.5747 110.354 65.71 109.682 65.71ZM109.682 64.121C110.177 64.121 110.578 63.9857 110.886 63.715C111.199 63.4443 111.355 63.0477 111.355 62.525C111.355 62.0023 111.201 61.6057 110.893 61.335C110.585 61.0597 110.181 60.922 109.682 60.922C109.187 60.922 108.788 61.0597 108.485 61.335C108.182 61.6057 108.03 62.0023 108.03 62.525C108.03 63.0477 108.182 63.4443 108.485 63.715C108.788 63.9857 109.187 64.121 109.682 64.121ZM109.682 59.319C110.097 59.319 110.433 59.2163 110.69 59.011C110.951 58.801 111.082 58.4837 111.082 58.059C111.082 57.6343 110.951 57.3193 110.69 57.114C110.433 56.904 110.097 56.799 109.682 56.799C109.271 56.799 108.935 56.904 108.674 57.114C108.417 57.3193 108.289 57.6343 108.289 58.059C108.289 58.4837 108.417 58.801 108.674 59.011C108.935 59.2163 109.271 59.319 109.682 59.319ZM114.565 67.285L114.663 66.557C114.878 66.5757 115.048 66.5383 115.174 66.445C115.3 66.3563 115.384 66.228 115.426 66.06C115.473 65.8967 115.484 65.71 115.461 65.5H114.565V63.701H116.294V65.57C116.294 66.1813 116.149 66.6433 115.86 66.956C115.571 67.2687 115.139 67.3783 114.565 67.285ZM119.216 65.5L122.688 57.016H118.285V55.42H124.494V57.016L121.036 65.5H119.216ZM128.907 65.71C128.394 65.71 127.915 65.605 127.472 65.395C127.029 65.1803 126.646 64.8863 126.324 64.513C126.007 64.1397 125.778 63.7057 125.638 63.211L127.262 62.777C127.327 63.0477 127.446 63.281 127.619 63.477C127.796 63.673 128.002 63.8247 128.235 63.932C128.473 64.0393 128.718 64.093 128.97 64.093C129.297 64.093 129.595 64.0137 129.866 63.855C130.137 63.6963 130.351 63.484 130.51 63.218C130.669 62.9473 130.748 62.6487 130.748 62.322C130.748 61.9953 130.666 61.699 130.503 61.433C130.344 61.1623 130.13 60.95 129.859 60.796C129.588 60.6373 129.292 60.558 128.97 60.558C128.583 60.558 128.261 60.628 128.004 60.768C127.752 60.908 127.558 61.0573 127.423 61.216L125.981 60.754L126.289 55.42H131.763V57.002H127.192L127.822 56.407L127.598 60.117L127.29 59.739C127.551 59.501 127.855 59.3237 128.2 59.207C128.545 59.0903 128.879 59.032 129.201 59.032C129.831 59.032 130.389 59.1767 130.874 59.466C131.364 59.7507 131.747 60.1403 132.022 60.635C132.302 61.1297 132.442 61.692 132.442 62.322C132.442 62.952 132.279 63.5237 131.952 64.037C131.625 64.5457 131.194 64.9517 130.657 65.255C130.125 65.5583 129.542 65.71 128.907 65.71Z" fill="#1E2029"/>
</g>
<defs>
<filter id="filter0_d_2_382" x="0" y="0" width="195.915" height="144" filterUnits="userSpaceOnUse" color-interpolation-filters="sRGB">
<feFlood flood-opacity="0" result="BackgroundImageFix"/>
<feColorMatrix in="SourceAlpha" type="matrix" values="0 0 0 0 0 0 0 0 0 0 0 0 0 0 0 0 0 0 127 0" result="hardAlpha"/>
<feOffset dy="12"/>
<feGaussianBlur stdDeviation="25"/>
<feComposite in2="hardAlpha" operator="out"/>
<feColorMatrix type="matrix" values="0 0 0 0 0 0 0 0 0 0 0 0 0 0 0 0 0 0 0.04 0"/>
<feBlend mode="normal" in2="BackgroundImageFix" result="effect1_dropShadow_2_382"/>
<feBlend mode="normal" in="SourceGraphic" in2="effect1_dropShadow_2_382" result="shape"/>
</filter>
</defs>
</svg>
