<svg width="492" height="259" viewBox="0 0 492 259" fill="none" xmlns="http://www.w3.org/2000/svg">
<mask id="mask0_2_149" style="mask-type:alpha" maskUnits="userSpaceOnUse" x="0" y="59" width="489" height="173">
<rect y="59" width="489" height="173" fill="#D9D9D9"/>
</mask>
<g mask="url(#mask0_2_149)">
<g filter="url(#filter0_d_2_149)">
<path fill-rule="evenodd" clip-rule="evenodd" d="M669 65.1586L663.859 81.1001C658.718 96.6794 648.436 127.838 638.622 140.881C628.34 153.924 618.058 148.852 607.776 146.316C597.494 143.417 587.212 143.417 577.397 146.316C567.115 148.852 556.833 153.924 546.551 151.388C536.269 148.852 526.455 138.345 516.173 138.345C505.891 138.345 495.609 148.852 485.327 153.924C475.045 159.359 465.231 159.359 454.949 153.924C444.667 148.852 434.385 138.345 424.103 133.272C414.288 127.838 404.006 127.838 393.724 114.795C383.442 101.752 373.16 75.6655 362.878 73.1293C353.064 70.5931 342.782 91.2447 332.5 88.7085C322.218 86.1724 311.936 60.0862 302.122 68.057C291.84 75.6655 281.558 117.331 271.276 127.838C260.994 138.345 250.712 117.331 240.897 120.229C230.615 122.766 220.333 148.852 210.051 153.924C199.769 159.359 189.955 143.417 179.673 127.838C169.391 112.259 159.109 96.6793 148.827 99.2155C138.545 101.752 128.731 122.765 118.449 114.795C108.167 107.186 97.8847 70.5931 87.6028 73.1293C77.7882 75.6654 67.5062 117.331 57.2243 120.229C46.9423 122.765 36.6604 86.1724 26.3785 68.057C16.5639 49.5792 6.28194 49.5792 1.14097 49.5792L-4.00001 49.5792L-4.00001 34L1.14097 34C6.28194 34 16.5639 34 26.3785 34C36.6604 34 46.9424 34 57.2243 34C67.5062 34 77.7882 34 87.6028 34C97.8847 34 108.167 34 118.449 34C128.731 34 138.545 34 148.827 34C159.109 34 169.391 34 179.673 34C189.955 34 199.769 34 210.051 34C220.333 34 230.615 34 240.897 34C250.712 34 260.994 34 271.276 34C281.558 34 291.84 34 302.122 34C311.936 34 322.218 34 332.5 34C342.782 34 353.064 34 362.878 34C373.16 34 383.442 34 393.724 34C404.006 34 414.288 34 424.103 34C434.385 34 444.667 34 454.949 34C465.231 34 475.045 34 485.327 34C495.609 34 505.891 34 516.173 34C526.455 34 536.269 34 546.551 34C556.833 34 567.115 34 577.397 34C587.212 34.0001 597.494 34.0001 607.776 34.0001C618.058 34.0001 628.34 34.0001 638.622 34.0001C648.436 34.0001 658.718 34.0001 663.859 34.0001L669 34.0001L669 65.1586Z" stroke="#9664FF" stroke-width="4" shape-rendering="crispEdges"/>
</g>
</g>
<path d="M321.278 238L324.254 230.728H320.48V229.36H325.802V230.728L322.838 238H321.278ZM330.937 238.18C330.277 238.18 329.727 238.008 329.287 237.664C328.851 237.32 328.545 236.856 328.369 236.272L329.797 235.93C329.841 236.174 329.969 236.384 330.181 236.56C330.393 236.736 330.627 236.824 330.883 236.824C331.051 236.824 331.229 236.78 331.417 236.692C331.605 236.6 331.745 236.454 331.837 236.254C331.893 236.126 331.925 235.974 331.933 235.798C331.945 235.618 331.951 235.41 331.951 235.174V229.36H333.415V235.174C333.415 235.442 333.413 235.678 333.409 235.882C333.409 236.082 333.389 236.272 333.349 236.452C333.313 236.628 333.239 236.81 333.127 236.998C332.891 237.406 332.583 237.706 332.203 237.898C331.823 238.086 331.401 238.18 330.937 238.18ZM337.435 238.186C336.955 238.186 336.559 238.106 336.247 237.946C335.935 237.786 335.687 237.582 335.503 237.334C335.319 237.086 335.183 236.822 335.095 236.542C335.007 236.262 334.949 235.998 334.921 235.75C334.897 235.498 334.885 235.294 334.885 235.138V231.52H336.349V234.64C336.349 234.84 336.363 235.066 336.391 235.318C336.419 235.566 336.483 235.806 336.583 236.038C336.687 236.266 336.839 236.454 337.039 236.602C337.243 236.75 337.517 236.824 337.861 236.824C338.045 236.824 338.227 236.794 338.407 236.734C338.587 236.674 338.749 236.572 338.893 236.428C339.041 236.28 339.159 236.078 339.247 235.822C339.335 235.566 339.379 235.242 339.379 234.85L340.237 235.216C340.237 235.768 340.129 236.268 339.913 236.716C339.701 237.164 339.387 237.522 338.971 237.79C338.555 238.054 338.043 238.186 337.435 238.186ZM339.553 238V235.99H339.379V231.52H340.831V238H339.553ZM342.42 238V229.18H343.866V238H342.42ZM346.3 240.88L347.548 237.454L347.572 238.462L344.746 231.52H346.252L348.256 236.656H347.872L349.822 231.52H351.268L347.656 240.88H346.3Z" fill="#1E2029"/>
<path opacity="0.4" d="M389.166 238.18C388.594 238.18 388.086 238.064 387.642 237.832C387.198 237.6 386.85 237.278 386.598 236.866C386.346 236.454 386.22 235.982 386.22 235.45C386.22 234.974 386.33 234.532 386.55 234.124C386.77 233.716 387.092 233.39 387.516 233.146L387.486 233.608C387.154 233.356 386.896 233.066 386.712 232.738C386.532 232.406 386.442 232.034 386.442 231.622C386.442 231.126 386.558 230.696 386.79 230.332C387.026 229.968 387.348 229.686 387.756 229.486C388.164 229.282 388.634 229.18 389.166 229.18C389.698 229.18 390.168 229.282 390.576 229.486C390.988 229.686 391.31 229.968 391.542 230.332C391.778 230.696 391.896 231.126 391.896 231.622C391.896 232.034 391.808 232.404 391.632 232.732C391.46 233.06 391.198 233.356 390.846 233.62L390.84 233.152C391.256 233.388 391.574 233.712 391.794 234.124C392.018 234.532 392.13 234.974 392.13 235.45C392.13 235.982 392.002 236.454 391.746 236.866C391.494 237.278 391.144 237.6 390.696 237.832C390.252 238.064 389.742 238.18 389.166 238.18ZM389.166 236.818C389.59 236.818 389.934 236.702 390.198 236.47C390.466 236.238 390.6 235.898 390.6 235.45C390.6 235.002 390.468 234.662 390.204 234.43C389.94 234.194 389.594 234.076 389.166 234.076C388.742 234.076 388.4 234.194 388.14 234.43C387.88 234.662 387.75 235.002 387.75 235.45C387.75 235.898 387.88 236.238 388.14 236.47C388.4 236.702 388.742 236.818 389.166 236.818ZM389.166 232.702C389.522 232.702 389.81 232.614 390.03 232.438C390.254 232.258 390.366 231.986 390.366 231.622C390.366 231.258 390.254 230.988 390.03 230.812C389.81 230.632 389.522 230.542 389.166 230.542C388.814 230.542 388.526 230.632 388.302 230.812C388.082 230.988 387.972 231.258 387.972 231.622C387.972 231.986 388.082 232.258 388.302 232.438C388.526 232.614 388.814 232.702 389.166 232.702ZM397.386 238.18C396.726 238.18 396.176 238.008 395.736 237.664C395.3 237.32 394.994 236.856 394.818 236.272L396.246 235.93C396.29 236.174 396.418 236.384 396.63 236.56C396.842 236.736 397.076 236.824 397.332 236.824C397.5 236.824 397.678 236.78 397.866 236.692C398.054 236.6 398.194 236.454 398.286 236.254C398.342 236.126 398.374 235.974 398.382 235.798C398.394 235.618 398.4 235.41 398.4 235.174V229.36H399.864V235.174C399.864 235.442 399.862 235.678 399.858 235.882C399.858 236.082 399.838 236.272 399.798 236.452C399.762 236.628 399.688 236.81 399.576 236.998C399.34 237.406 399.032 237.706 398.652 237.898C398.272 238.086 397.85 238.18 397.386 238.18ZM403.884 238.186C403.404 238.186 403.008 238.106 402.696 237.946C402.384 237.786 402.136 237.582 401.952 237.334C401.768 237.086 401.632 236.822 401.544 236.542C401.456 236.262 401.398 235.998 401.37 235.75C401.346 235.498 401.334 235.294 401.334 235.138V231.52H402.798V234.64C402.798 234.84 402.812 235.066 402.84 235.318C402.868 235.566 402.932 235.806 403.032 236.038C403.136 236.266 403.288 236.454 403.488 236.602C403.692 236.75 403.966 236.824 404.31 236.824C404.494 236.824 404.676 236.794 404.856 236.734C405.036 236.674 405.198 236.572 405.342 236.428C405.49 236.28 405.608 236.078 405.696 235.822C405.784 235.566 405.828 235.242 405.828 234.85L406.686 235.216C406.686 235.768 406.578 236.268 406.362 236.716C406.15 237.164 405.836 237.522 405.42 237.79C405.004 238.054 404.492 238.186 403.884 238.186ZM406.002 238V235.99H405.828V231.52H407.28V238H406.002ZM408.869 238V229.18H410.315V238H408.869ZM412.749 240.88L413.997 237.454L414.021 238.462L411.195 231.52H412.701L414.705 236.656H414.321L416.271 231.52H417.717L414.105 240.88H412.749Z" fill="#1E2029"/>
<path opacity="0.4" d="M455.13 229.192C455.694 229.192 456.202 229.326 456.654 229.594C457.106 229.858 457.462 230.226 457.722 230.698C457.986 231.166 458.118 231.706 458.118 232.318V234.952C458.118 235.604 457.986 236.174 457.722 236.662C457.462 237.146 457.096 237.52 456.624 237.784C456.152 238.048 455.6 238.18 454.968 238.18C454.532 238.18 454.12 238.106 453.732 237.958C453.344 237.806 452.996 237.574 452.688 237.262L453.726 236.248C453.882 236.428 454.068 236.57 454.284 236.674C454.504 236.774 454.732 236.824 454.968 236.824C455.304 236.824 455.598 236.746 455.85 236.59C456.102 236.43 456.298 236.224 456.438 235.972C456.578 235.716 456.648 235.442 456.648 235.15V233.716L456.906 234.004C456.662 234.292 456.366 234.518 456.018 234.682C455.67 234.842 455.304 234.922 454.92 234.922C454.38 234.922 453.9 234.798 453.48 234.55C453.064 234.302 452.736 233.966 452.496 233.542C452.26 233.114 452.142 232.63 452.142 232.09C452.142 231.55 452.278 231.062 452.55 230.626C452.822 230.186 453.184 229.838 453.636 229.582C454.092 229.322 454.59 229.192 455.13 229.192ZM455.13 230.572C454.85 230.572 454.594 230.64 454.362 230.776C454.13 230.912 453.946 231.096 453.81 231.328C453.674 231.556 453.606 231.81 453.606 232.09C453.606 232.37 453.672 232.626 453.804 232.858C453.94 233.09 454.122 233.274 454.35 233.41C454.582 233.546 454.838 233.614 455.118 233.614C455.398 233.614 455.654 233.546 455.886 233.41C456.118 233.274 456.302 233.09 456.438 232.858C456.578 232.626 456.648 232.37 456.648 232.09C456.648 231.818 456.58 231.568 456.444 231.34C456.308 231.108 456.124 230.922 455.892 230.782C455.664 230.642 455.41 230.572 455.13 230.572ZM463.491 238.18C462.831 238.18 462.281 238.008 461.841 237.664C461.405 237.32 461.099 236.856 460.923 236.272L462.351 235.93C462.395 236.174 462.523 236.384 462.735 236.56C462.947 236.736 463.181 236.824 463.437 236.824C463.605 236.824 463.783 236.78 463.971 236.692C464.159 236.6 464.299 236.454 464.391 236.254C464.447 236.126 464.479 235.974 464.487 235.798C464.499 235.618 464.505 235.41 464.505 235.174V229.36H465.969V235.174C465.969 235.442 465.967 235.678 465.963 235.882C465.963 236.082 465.943 236.272 465.903 236.452C465.867 236.628 465.793 236.81 465.681 236.998C465.445 237.406 465.137 237.706 464.757 237.898C464.377 238.086 463.955 238.18 463.491 238.18ZM469.989 238.186C469.509 238.186 469.113 238.106 468.801 237.946C468.489 237.786 468.241 237.582 468.057 237.334C467.873 237.086 467.737 236.822 467.649 236.542C467.561 236.262 467.503 235.998 467.475 235.75C467.451 235.498 467.439 235.294 467.439 235.138V231.52H468.903V234.64C468.903 234.84 468.917 235.066 468.945 235.318C468.973 235.566 469.037 235.806 469.137 236.038C469.241 236.266 469.393 236.454 469.593 236.602C469.797 236.75 470.071 236.824 470.415 236.824C470.599 236.824 470.781 236.794 470.961 236.734C471.141 236.674 471.303 236.572 471.447 236.428C471.595 236.28 471.713 236.078 471.801 235.822C471.889 235.566 471.933 235.242 471.933 234.85L472.791 235.216C472.791 235.768 472.683 236.268 472.467 236.716C472.255 237.164 471.941 237.522 471.525 237.79C471.109 238.054 470.597 238.186 469.989 238.186ZM472.107 238V235.99H471.933V231.52H473.385V238H472.107ZM474.975 238V229.18H476.421V238H474.975ZM478.854 240.88L480.102 237.454L480.126 238.462L477.3 231.52H478.806L480.81 236.656H480.426L482.376 231.52H483.822L480.21 240.88H478.854Z" fill="#1E2029"/>
<path opacity="0.4" d="M257.328 238.18C256.764 238.18 256.256 238.048 255.804 237.784C255.356 237.516 255 237.146 254.736 236.674C254.472 236.202 254.34 235.66 254.34 235.048V232.42C254.34 231.764 254.47 231.194 254.73 230.71C254.994 230.226 255.362 229.852 255.834 229.588C256.31 229.324 256.862 229.192 257.49 229.192C257.926 229.192 258.34 229.266 258.732 229.414C259.124 229.558 259.472 229.79 259.776 230.11L258.732 231.124C258.58 230.944 258.394 230.802 258.174 230.698C257.958 230.594 257.73 230.542 257.49 230.542C257.154 230.542 256.86 230.622 256.608 230.782C256.356 230.938 256.16 231.144 256.02 231.4C255.884 231.656 255.816 231.93 255.816 232.222V233.656L255.552 233.368C255.8 233.08 256.098 232.856 256.446 232.696C256.794 232.532 257.158 232.45 257.538 232.45C258.082 232.45 258.562 232.574 258.978 232.822C259.394 233.066 259.722 233.402 259.962 233.83C260.202 234.254 260.322 234.738 260.322 235.282C260.322 235.822 260.184 236.312 259.908 236.752C259.636 237.188 259.274 237.536 258.822 237.796C258.37 238.052 257.872 238.18 257.328 238.18ZM257.328 236.794C257.608 236.794 257.864 236.728 258.096 236.596C258.328 236.46 258.512 236.278 258.648 236.05C258.788 235.818 258.858 235.562 258.858 235.282C258.858 235.002 258.79 234.746 258.654 234.514C258.518 234.282 258.334 234.098 258.102 233.962C257.874 233.822 257.62 233.752 257.34 233.752C257.06 233.752 256.804 233.822 256.572 233.962C256.34 234.098 256.156 234.282 256.02 234.514C255.884 234.746 255.816 235.002 255.816 235.282C255.816 235.554 255.882 235.806 256.014 236.038C256.15 236.266 256.332 236.45 256.56 236.59C256.792 236.726 257.048 236.794 257.328 236.794ZM265.491 238.18C264.831 238.18 264.281 238.008 263.841 237.664C263.405 237.32 263.099 236.856 262.923 236.272L264.351 235.93C264.395 236.174 264.523 236.384 264.735 236.56C264.947 236.736 265.181 236.824 265.437 236.824C265.605 236.824 265.783 236.78 265.971 236.692C266.159 236.6 266.299 236.454 266.391 236.254C266.447 236.126 266.479 235.974 266.487 235.798C266.499 235.618 266.505 235.41 266.505 235.174V229.36H267.969V235.174C267.969 235.442 267.967 235.678 267.963 235.882C267.963 236.082 267.943 236.272 267.903 236.452C267.867 236.628 267.793 236.81 267.681 236.998C267.445 237.406 267.137 237.706 266.757 237.898C266.377 238.086 265.955 238.18 265.491 238.18ZM271.989 238.186C271.509 238.186 271.113 238.106 270.801 237.946C270.489 237.786 270.241 237.582 270.057 237.334C269.873 237.086 269.737 236.822 269.649 236.542C269.561 236.262 269.503 235.998 269.475 235.75C269.451 235.498 269.439 235.294 269.439 235.138V231.52H270.903V234.64C270.903 234.84 270.917 235.066 270.945 235.318C270.973 235.566 271.037 235.806 271.137 236.038C271.241 236.266 271.393 236.454 271.593 236.602C271.797 236.75 272.071 236.824 272.415 236.824C272.599 236.824 272.781 236.794 272.961 236.734C273.141 236.674 273.303 236.572 273.447 236.428C273.595 236.28 273.713 236.078 273.801 235.822C273.889 235.566 273.933 235.242 273.933 234.85L274.791 235.216C274.791 235.768 274.683 236.268 274.467 236.716C274.255 237.164 273.941 237.522 273.525 237.79C273.109 238.054 272.597 238.186 271.989 238.186ZM274.107 238V235.99H273.933V231.52H275.385V238H274.107ZM276.975 238V229.18H278.421V238H276.975ZM280.854 240.88L282.102 237.454L282.126 238.462L279.3 231.52H280.806L282.81 236.656H282.426L284.376 231.52H285.822L282.21 240.88H280.854Z" fill="#1E2029"/>
<path opacity="0.4" d="M191.402 238.18C190.962 238.18 190.552 238.09 190.172 237.91C189.792 237.726 189.464 237.474 189.188 237.154C188.916 236.834 188.72 236.462 188.6 236.038L189.992 235.666C190.048 235.898 190.15 236.098 190.298 236.266C190.45 236.434 190.626 236.564 190.826 236.656C191.03 236.748 191.24 236.794 191.456 236.794C191.736 236.794 191.992 236.726 192.224 236.59C192.456 236.454 192.64 236.272 192.776 236.044C192.912 235.812 192.98 235.556 192.98 235.276C192.98 234.996 192.91 234.742 192.77 234.514C192.634 234.282 192.45 234.1 192.218 233.968C191.986 233.832 191.732 233.764 191.456 233.764C191.124 233.764 190.848 233.824 190.628 233.944C190.412 234.064 190.246 234.192 190.13 234.328L188.894 233.932L189.158 229.36H193.85V230.716H189.932L190.472 230.206L190.28 233.386L190.016 233.062C190.24 232.858 190.5 232.706 190.796 232.606C191.092 232.506 191.378 232.456 191.654 232.456C192.194 232.456 192.672 232.58 193.088 232.828C193.508 233.072 193.836 233.406 194.072 233.83C194.312 234.254 194.432 234.736 194.432 235.276C194.432 235.816 194.292 236.306 194.012 236.746C193.732 237.182 193.362 237.53 192.902 237.79C192.446 238.05 191.946 238.18 191.402 238.18ZM199.57 238.18C198.91 238.18 198.36 238.008 197.92 237.664C197.484 237.32 197.178 236.856 197.002 236.272L198.43 235.93C198.474 236.174 198.602 236.384 198.814 236.56C199.026 236.736 199.26 236.824 199.516 236.824C199.684 236.824 199.862 236.78 200.05 236.692C200.238 236.6 200.378 236.454 200.47 236.254C200.526 236.126 200.558 235.974 200.566 235.798C200.578 235.618 200.584 235.41 200.584 235.174V229.36H202.048V235.174C202.048 235.442 202.046 235.678 202.042 235.882C202.042 236.082 202.022 236.272 201.982 236.452C201.946 236.628 201.872 236.81 201.76 236.998C201.524 237.406 201.216 237.706 200.836 237.898C200.456 238.086 200.034 238.18 199.57 238.18ZM206.067 238.186C205.587 238.186 205.191 238.106 204.879 237.946C204.567 237.786 204.319 237.582 204.135 237.334C203.951 237.086 203.815 236.822 203.727 236.542C203.639 236.262 203.581 235.998 203.553 235.75C203.529 235.498 203.517 235.294 203.517 235.138V231.52H204.981V234.64C204.981 234.84 204.995 235.066 205.023 235.318C205.051 235.566 205.115 235.806 205.215 236.038C205.319 236.266 205.471 236.454 205.671 236.602C205.875 236.75 206.149 236.824 206.493 236.824C206.677 236.824 206.859 236.794 207.039 236.734C207.219 236.674 207.381 236.572 207.525 236.428C207.673 236.28 207.791 236.078 207.879 235.822C207.967 235.566 208.011 235.242 208.011 234.85L208.869 235.216C208.869 235.768 208.761 236.268 208.545 236.716C208.333 237.164 208.019 237.522 207.603 237.79C207.187 238.054 206.675 238.186 206.067 238.186ZM208.185 238V235.99H208.011V231.52H209.463V238H208.185ZM211.053 238V229.18H212.499V238H211.053ZM214.932 240.88L216.18 237.454L216.204 238.462L213.378 231.52H214.884L216.888 236.656H216.504L218.454 231.52H219.9L216.288 240.88H214.932Z" fill="#1E2029"/>
<path opacity="0.4" d="M125.928 238V236.572H122.1V235.222L124.866 229.36H126.516L123.75 235.222H125.928V232.972H127.392V235.222H128.202V236.572H127.392V238H125.928ZM133.339 238.18C132.679 238.18 132.129 238.008 131.689 237.664C131.253 237.32 130.947 236.856 130.771 236.272L132.199 235.93C132.243 236.174 132.371 236.384 132.583 236.56C132.795 236.736 133.029 236.824 133.285 236.824C133.453 236.824 133.631 236.78 133.819 236.692C134.007 236.6 134.147 236.454 134.239 236.254C134.295 236.126 134.327 235.974 134.335 235.798C134.347 235.618 134.353 235.41 134.353 235.174V229.36H135.817V235.174C135.817 235.442 135.815 235.678 135.811 235.882C135.811 236.082 135.791 236.272 135.751 236.452C135.715 236.628 135.641 236.81 135.529 236.998C135.293 237.406 134.985 237.706 134.605 237.898C134.225 238.086 133.803 238.18 133.339 238.18ZM139.837 238.186C139.357 238.186 138.961 238.106 138.649 237.946C138.337 237.786 138.089 237.582 137.905 237.334C137.721 237.086 137.585 236.822 137.497 236.542C137.409 236.262 137.351 235.998 137.323 235.75C137.299 235.498 137.287 235.294 137.287 235.138V231.52H138.751V234.64C138.751 234.84 138.765 235.066 138.793 235.318C138.821 235.566 138.885 235.806 138.985 236.038C139.089 236.266 139.241 236.454 139.441 236.602C139.645 236.75 139.919 236.824 140.263 236.824C140.447 236.824 140.629 236.794 140.809 236.734C140.989 236.674 141.151 236.572 141.295 236.428C141.443 236.28 141.561 236.078 141.649 235.822C141.737 235.566 141.781 235.242 141.781 234.85L142.639 235.216C142.639 235.768 142.531 236.268 142.315 236.716C142.103 237.164 141.789 237.522 141.373 237.79C140.957 238.054 140.445 238.186 139.837 238.186ZM141.955 238V235.99H141.781V231.52H143.233V238H141.955ZM144.823 238V229.18H146.269V238H144.823ZM148.702 240.88L149.95 237.454L149.974 238.462L147.148 231.52H148.654L150.658 236.656H150.274L152.224 231.52H153.67L150.058 240.88H148.702Z" fill="#1E2029"/>
<path opacity="0.4" d="M59.312 238.162C58.88 238.162 58.472 238.078 58.088 237.91C57.704 237.742 57.37 237.504 57.086 237.196C56.806 236.888 56.604 236.524 56.48 236.104L57.878 235.726C57.978 236.07 58.16 236.336 58.424 236.524C58.692 236.708 58.986 236.798 59.306 236.794C59.59 236.794 59.844 236.728 60.068 236.596C60.292 236.464 60.468 236.286 60.596 236.062C60.724 235.834 60.788 235.58 60.788 235.3C60.788 234.872 60.65 234.514 60.374 234.226C60.098 233.938 59.742 233.794 59.306 233.794C59.174 233.794 59.044 233.812 58.916 233.848C58.792 233.884 58.672 233.934 58.556 233.998L57.896 232.858L60.8 230.374L60.926 230.722H56.816V229.36H62.114V230.728L59.78 232.972L59.768 232.546C60.292 232.582 60.738 232.728 61.106 232.984C61.478 233.24 61.762 233.57 61.958 233.974C62.158 234.378 62.258 234.82 62.258 235.3C62.258 235.844 62.124 236.332 61.856 236.764C61.592 237.196 61.236 237.538 60.788 237.79C60.344 238.038 59.852 238.162 59.312 238.162ZM67.511 238.18C66.851 238.18 66.301 238.008 65.861 237.664C65.425 237.32 65.119 236.856 64.943 236.272L66.371 235.93C66.415 236.174 66.543 236.384 66.755 236.56C66.967 236.736 67.201 236.824 67.457 236.824C67.625 236.824 67.803 236.78 67.991 236.692C68.179 236.6 68.319 236.454 68.411 236.254C68.467 236.126 68.499 235.974 68.507 235.798C68.519 235.618 68.525 235.41 68.525 235.174V229.36H69.989V235.174C69.989 235.442 69.987 235.678 69.983 235.882C69.983 236.082 69.963 236.272 69.923 236.452C69.887 236.628 69.813 236.81 69.701 236.998C69.465 237.406 69.157 237.706 68.777 237.898C68.397 238.086 67.975 238.18 67.511 238.18ZM74.0087 238.186C73.5287 238.186 73.1327 238.106 72.8207 237.946C72.5087 237.786 72.2607 237.582 72.0767 237.334C71.8927 237.086 71.7567 236.822 71.6687 236.542C71.5807 236.262 71.5227 235.998 71.4947 235.75C71.4707 235.498 71.4587 235.294 71.4587 235.138V231.52H72.9227V234.64C72.9227 234.84 72.9367 235.066 72.9647 235.318C72.9927 235.566 73.0567 235.806 73.1567 236.038C73.2607 236.266 73.4127 236.454 73.6127 236.602C73.8167 236.75 74.0907 236.824 74.4347 236.824C74.6187 236.824 74.8007 236.794 74.9807 236.734C75.1607 236.674 75.3227 236.572 75.4667 236.428C75.6147 236.28 75.7327 236.078 75.8207 235.822C75.9087 235.566 75.9527 235.242 75.9527 234.85L76.8107 235.216C76.8107 235.768 76.7027 236.268 76.4867 236.716C76.2747 237.164 75.9607 237.522 75.5447 237.79C75.1287 238.054 74.6167 238.186 74.0087 238.186ZM76.1267 238V235.99H75.9527V231.52H77.4047V238H76.1267ZM78.9944 238V229.18H80.4404V238H78.9944ZM82.8737 240.88L84.1217 237.454L84.1457 238.462L81.3197 231.52H82.8257L84.8297 236.656H84.4457L86.3957 231.52H87.8417L84.2297 240.88H82.8737Z" fill="#1E2029"/>
<rect x="397" y="21" width="95" height="164" fill="url(#paint0_linear_2_149)"/>
<rect width="97" height="164" transform="matrix(-1 0 0 1 97 21)" fill="url(#paint1_linear_2_149)"/>
<path opacity="0.4" d="M3.602 200.194V198.772H5.048V200.194H3.602ZM3.602 190.594V189.172H5.048V190.594H3.602ZM4.358 199.18C3.75 199.18 3.206 199.068 2.726 198.844C2.246 198.62 1.852 198.304 1.544 197.896C1.24 197.488 1.046 197.004 0.962 196.444L2.39 196.216C2.502 196.708 2.742 197.1 3.11 197.392C3.482 197.68 3.926 197.824 4.442 197.824C4.938 197.824 5.346 197.708 5.666 197.476C5.986 197.24 6.146 196.942 6.146 196.582C6.146 196.33 6.07 196.126 5.918 195.97C5.766 195.81 5.522 195.678 5.186 195.574L3.104 194.926C1.892 194.55 1.286 193.814 1.286 192.718C1.286 192.206 1.408 191.76 1.652 191.38C1.9 190.996 2.248 190.702 2.696 190.498C3.144 190.29 3.672 190.188 4.28 190.192C4.844 190.196 5.346 190.298 5.786 190.498C6.23 190.698 6.598 190.986 6.89 191.362C7.186 191.738 7.396 192.19 7.52 192.718L6.038 192.988C5.982 192.704 5.872 192.454 5.708 192.238C5.544 192.022 5.338 191.854 5.09 191.734C4.842 191.614 4.566 191.55 4.262 191.542C3.97 191.538 3.708 191.584 3.476 191.68C3.244 191.772 3.06 191.904 2.924 192.076C2.788 192.244 2.72 192.434 2.72 192.646C2.72 192.882 2.814 193.084 3.002 193.252C3.194 193.42 3.496 193.564 3.908 193.684L5.462 194.134C6.21 194.35 6.748 194.644 7.076 195.016C7.408 195.384 7.574 195.874 7.574 196.486C7.574 197.022 7.44 197.492 7.172 197.896C6.904 198.3 6.528 198.616 6.044 198.844C5.56 199.068 4.998 199.18 4.358 199.18ZM8.41916 198.988V197.728L12.1152 194.434C12.4032 194.178 12.6032 193.936 12.7152 193.708C12.8272 193.48 12.8832 193.26 12.8832 193.048C12.8832 192.76 12.8212 192.504 12.6972 192.28C12.5732 192.052 12.4012 191.872 12.1812 191.74C11.9652 191.608 11.7152 191.542 11.4312 191.542C11.1312 191.542 10.8652 191.612 10.6332 191.752C10.4052 191.888 10.2272 192.07 10.0992 192.298C9.97116 192.526 9.91116 192.772 9.91916 193.036H8.43116C8.43116 192.46 8.55916 191.958 8.81516 191.53C9.07516 191.102 9.43116 190.77 9.88316 190.534C10.3392 190.298 10.8652 190.18 11.4612 190.18C12.0132 190.18 12.5092 190.304 12.9492 190.552C13.3892 190.796 13.7352 191.136 13.9872 191.572C14.2392 192.004 14.3652 192.502 14.3652 193.066C14.3652 193.478 14.3092 193.824 14.1972 194.104C14.0852 194.384 13.9172 194.642 13.6932 194.878C13.4732 195.114 13.1992 195.376 12.8712 195.664L10.2492 197.986L10.1172 197.626H14.3652V198.988H8.41916ZM18.6996 199.18C18.0876 199.18 17.5476 199.05 17.0796 198.79C16.6116 198.526 16.2456 198.16 15.9816 197.692C15.7216 197.224 15.5916 196.684 15.5916 196.072V193.288C15.5916 192.676 15.7216 192.136 15.9816 191.668C16.2456 191.2 16.6116 190.836 17.0796 190.576C17.5476 190.312 18.0876 190.18 18.6996 190.18C19.3116 190.18 19.8496 190.312 20.3136 190.576C20.7816 190.836 21.1476 191.2 21.4116 191.668C21.6756 192.136 21.8076 192.676 21.8076 193.288V196.072C21.8076 196.684 21.6756 197.224 21.4116 197.692C21.1476 198.16 20.7816 198.526 20.3136 198.79C19.8496 199.05 19.3116 199.18 18.6996 199.18ZM18.6996 197.806C19.0036 197.806 19.2796 197.734 19.5276 197.59C19.7756 197.442 19.9716 197.246 20.1156 197.002C20.2596 196.754 20.3316 196.478 20.3316 196.174V193.18C20.3316 192.872 20.2596 192.596 20.1156 192.352C19.9716 192.104 19.7756 191.908 19.5276 191.764C19.2796 191.616 19.0036 191.542 18.6996 191.542C18.3956 191.542 18.1196 191.616 17.8716 191.764C17.6236 191.908 17.4276 192.104 17.2836 192.352C17.1396 192.596 17.0676 192.872 17.0676 193.18V196.174C17.0676 196.478 17.1396 196.754 17.2836 197.002C17.4276 197.246 17.6236 197.442 17.8716 197.59C18.1196 197.734 18.3956 197.806 18.6996 197.806ZM23.154 200.53L23.238 199.906C23.422 199.922 23.568 199.89 23.676 199.81C23.784 199.734 23.856 199.624 23.892 199.48C23.932 199.34 23.942 199.18 23.922 199H23.154V197.458H24.636V199.06C24.636 199.584 24.512 199.98 24.264 200.248C24.016 200.516 23.646 200.61 23.154 200.53ZM29.8106 199.18C29.1986 199.18 28.6586 199.05 28.1906 198.79C27.7226 198.526 27.3566 198.16 27.0926 197.692C26.8326 197.224 26.7026 196.684 26.7026 196.072V193.288C26.7026 192.676 26.8326 192.136 27.0926 191.668C27.3566 191.2 27.7226 190.836 28.1906 190.576C28.6586 190.312 29.1986 190.18 29.8106 190.18C30.4226 190.18 30.9606 190.312 31.4246 190.576C31.8926 190.836 32.2586 191.2 32.5226 191.668C32.7866 192.136 32.9186 192.676 32.9186 193.288V196.072C32.9186 196.684 32.7866 197.224 32.5226 197.692C32.2586 198.16 31.8926 198.526 31.4246 198.79C30.9606 199.05 30.4226 199.18 29.8106 199.18ZM29.8106 197.806C30.1146 197.806 30.3906 197.734 30.6386 197.59C30.8866 197.442 31.0826 197.246 31.2266 197.002C31.3706 196.754 31.4426 196.478 31.4426 196.174V193.18C31.4426 192.872 31.3706 192.596 31.2266 192.352C31.0826 192.104 30.8866 191.908 30.6386 191.764C30.3906 191.616 30.1146 191.542 29.8106 191.542C29.5066 191.542 29.2306 191.616 28.9826 191.764C28.7346 191.908 28.5386 192.104 28.3946 192.352C28.2506 192.596 28.1786 192.872 28.1786 193.18V196.174C28.1786 196.478 28.2506 196.754 28.3946 197.002C28.5386 197.246 28.7346 197.442 28.9826 197.59C29.2306 197.734 29.5066 197.806 29.8106 197.806ZM37.493 199.18C36.881 199.18 36.341 199.05 35.873 198.79C35.405 198.526 35.039 198.16 34.775 197.692C34.515 197.224 34.385 196.684 34.385 196.072V193.288C34.385 192.676 34.515 192.136 34.775 191.668C35.039 191.2 35.405 190.836 35.873 190.576C36.341 190.312 36.881 190.18 37.493 190.18C38.105 190.18 38.643 190.312 39.107 190.576C39.575 190.836 39.941 191.2 40.205 191.668C40.469 192.136 40.601 192.676 40.601 193.288V196.072C40.601 196.684 40.469 197.224 40.205 197.692C39.941 198.16 39.575 198.526 39.107 198.79C38.643 199.05 38.105 199.18 37.493 199.18ZM37.493 197.806C37.797 197.806 38.073 197.734 38.321 197.59C38.569 197.442 38.765 197.246 38.909 197.002C39.053 196.754 39.125 196.478 39.125 196.174V193.18C39.125 192.872 39.053 192.596 38.909 192.352C38.765 192.104 38.569 191.908 38.321 191.764C38.073 191.616 37.797 191.542 37.493 191.542C37.189 191.542 36.913 191.616 36.665 191.764C36.417 191.908 36.221 192.104 36.077 192.352C35.933 192.596 35.861 192.872 35.861 193.18V196.174C35.861 196.478 35.933 196.754 36.077 197.002C36.221 197.246 36.417 197.442 36.665 197.59C36.913 197.734 37.189 197.806 37.493 197.806Z" fill="#1E2029"/>
<path opacity="0.4" d="M3.102 144.194V142.772H4.548V144.194H3.102ZM3.102 134.594V133.172H4.548V134.594H3.102ZM3.858 143.18C3.25 143.18 2.706 143.068 2.226 142.844C1.746 142.62 1.352 142.304 1.044 141.896C0.74 141.488 0.546 141.004 0.462 140.444L1.89 140.216C2.002 140.708 2.242 141.1 2.61 141.392C2.982 141.68 3.426 141.824 3.942 141.824C4.438 141.824 4.846 141.708 5.166 141.476C5.486 141.24 5.646 140.942 5.646 140.582C5.646 140.33 5.57 140.126 5.418 139.97C5.266 139.81 5.022 139.678 4.686 139.574L2.604 138.926C1.392 138.55 0.786 137.814 0.786 136.718C0.786 136.206 0.908 135.76 1.152 135.38C1.4 134.996 1.748 134.702 2.196 134.498C2.644 134.29 3.172 134.188 3.78 134.192C4.344 134.196 4.846 134.298 5.286 134.498C5.73 134.698 6.098 134.986 6.39 135.362C6.686 135.738 6.896 136.19 7.02 136.718L5.538 136.988C5.482 136.704 5.372 136.454 5.208 136.238C5.044 136.022 4.838 135.854 4.59 135.734C4.342 135.614 4.066 135.55 3.762 135.542C3.47 135.538 3.208 135.584 2.976 135.68C2.744 135.772 2.56 135.904 2.424 136.076C2.288 136.244 2.22 136.434 2.22 136.646C2.22 136.882 2.314 137.084 2.502 137.252C2.694 137.42 2.996 137.564 3.408 137.684L4.962 138.134C5.71 138.35 6.248 138.644 6.576 139.016C6.908 139.384 7.074 139.874 7.074 140.486C7.074 141.022 6.94 141.492 6.672 141.896C6.404 142.3 6.028 142.616 5.544 142.844C5.06 143.068 4.498 143.18 3.858 143.18ZM11.7472 143V141.572H7.91916V140.222L10.6852 134.36H12.3352L9.56916 140.222H11.7472V137.972H13.2112V140.222H14.0212V141.572H13.2112V143H11.7472ZM18.3519 143.18C17.7399 143.18 17.1999 143.05 16.7319 142.79C16.2639 142.526 15.8979 142.16 15.6339 141.692C15.3739 141.224 15.2439 140.684 15.2439 140.072V137.288C15.2439 136.676 15.3739 136.136 15.6339 135.668C15.8979 135.2 16.2639 134.836 16.7319 134.576C17.1999 134.312 17.7399 134.18 18.3519 134.18C18.9639 134.18 19.5019 134.312 19.9659 134.576C20.4339 134.836 20.7999 135.2 21.0639 135.668C21.3279 136.136 21.4599 136.676 21.4599 137.288V140.072C21.4599 140.684 21.3279 141.224 21.0639 141.692C20.7999 142.16 20.4339 142.526 19.9659 142.79C19.5019 143.05 18.9639 143.18 18.3519 143.18ZM18.3519 141.806C18.6559 141.806 18.9319 141.734 19.1799 141.59C19.4279 141.442 19.6239 141.246 19.7679 141.002C19.9119 140.754 19.9839 140.478 19.9839 140.174V137.18C19.9839 136.872 19.9119 136.596 19.7679 136.352C19.6239 136.104 19.4279 135.908 19.1799 135.764C18.9319 135.616 18.6559 135.542 18.3519 135.542C18.0479 135.542 17.7719 135.616 17.5239 135.764C17.2759 135.908 17.0799 136.104 16.9359 136.352C16.7919 136.596 16.7199 136.872 16.7199 137.18V140.174C16.7199 140.478 16.7919 140.754 16.9359 141.002C17.0799 141.246 17.2759 141.442 17.5239 141.59C17.7719 141.734 18.0479 141.806 18.3519 141.806ZM22.8064 144.53L22.8904 143.906C23.0744 143.922 23.2204 143.89 23.3284 143.81C23.4364 143.734 23.5084 143.624 23.5444 143.48C23.5844 143.34 23.5944 143.18 23.5744 143H22.8064V141.458H24.2884V143.06C24.2884 143.584 24.1644 143.98 23.9164 144.248C23.6684 144.516 23.2984 144.61 22.8064 144.53ZM29.4629 143.18C28.8509 143.18 28.3109 143.05 27.8429 142.79C27.3749 142.526 27.0089 142.16 26.7449 141.692C26.4849 141.224 26.3549 140.684 26.3549 140.072V137.288C26.3549 136.676 26.4849 136.136 26.7449 135.668C27.0089 135.2 27.3749 134.836 27.8429 134.576C28.3109 134.312 28.8509 134.18 29.4629 134.18C30.0749 134.18 30.6129 134.312 31.0769 134.576C31.5449 134.836 31.9109 135.2 32.1749 135.668C32.4389 136.136 32.5709 136.676 32.5709 137.288V140.072C32.5709 140.684 32.4389 141.224 32.1749 141.692C31.9109 142.16 31.5449 142.526 31.0769 142.79C30.6129 143.05 30.0749 143.18 29.4629 143.18ZM29.4629 141.806C29.7669 141.806 30.0429 141.734 30.2909 141.59C30.5389 141.442 30.7349 141.246 30.8789 141.002C31.0229 140.754 31.0949 140.478 31.0949 140.174V137.18C31.0949 136.872 31.0229 136.596 30.8789 136.352C30.7349 136.104 30.5389 135.908 30.2909 135.764C30.0429 135.616 29.7669 135.542 29.4629 135.542C29.1589 135.542 28.8829 135.616 28.6349 135.764C28.3869 135.908 28.1909 136.104 28.0469 136.352C27.9029 136.596 27.8309 136.872 27.8309 137.18V140.174C27.8309 140.478 27.9029 140.754 28.0469 141.002C28.1909 141.246 28.3869 141.442 28.6349 141.59C28.8829 141.734 29.1589 141.806 29.4629 141.806ZM37.1453 143.18C36.5333 143.18 35.9933 143.05 35.5253 142.79C35.0573 142.526 34.6913 142.16 34.4273 141.692C34.1673 141.224 34.0373 140.684 34.0373 140.072V137.288C34.0373 136.676 34.1673 136.136 34.4273 135.668C34.6913 135.2 35.0573 134.836 35.5253 134.576C35.9933 134.312 36.5333 134.18 37.1453 134.18C37.7573 134.18 38.2953 134.312 38.7593 134.576C39.2273 134.836 39.5933 135.2 39.8573 135.668C40.1213 136.136 40.2533 136.676 40.2533 137.288V140.072C40.2533 140.684 40.1213 141.224 39.8573 141.692C39.5933 142.16 39.2273 142.526 38.7593 142.79C38.2953 143.05 37.7573 143.18 37.1453 143.18ZM37.1453 141.806C37.4493 141.806 37.7253 141.734 37.9733 141.59C38.2213 141.442 38.4173 141.246 38.5613 141.002C38.7053 140.754 38.7773 140.478 38.7773 140.174V137.18C38.7773 136.872 38.7053 136.596 38.5613 136.352C38.4173 136.104 38.2213 135.908 37.9733 135.764C37.7253 135.616 37.4493 135.542 37.1453 135.542C36.8413 135.542 36.5653 135.616 36.3173 135.764C36.0693 135.908 35.8733 136.104 35.7293 136.352C35.5853 136.596 35.5133 136.872 35.5133 137.18V140.174C35.5133 140.478 35.5853 140.754 35.7293 141.002C35.8733 141.246 36.0693 141.442 36.3173 141.59C36.5653 141.734 36.8413 141.806 37.1453 141.806Z" fill="#1E2029"/>
<path opacity="0.4" d="M3.102 88.194V86.772H4.548V88.194H3.102ZM3.102 78.594V77.172H4.548V78.594H3.102ZM3.858 87.18C3.25 87.18 2.706 87.068 2.226 86.844C1.746 86.62 1.352 86.304 1.044 85.896C0.74 85.488 0.546 85.004 0.462 84.444L1.89 84.216C2.002 84.708 2.242 85.1 2.61 85.392C2.982 85.68 3.426 85.824 3.942 85.824C4.438 85.824 4.846 85.708 5.166 85.476C5.486 85.24 5.646 84.942 5.646 84.582C5.646 84.33 5.57 84.126 5.418 83.97C5.266 83.81 5.022 83.678 4.686 83.574L2.604 82.926C1.392 82.55 0.786 81.814 0.786 80.718C0.786 80.206 0.908 79.76 1.152 79.38C1.4 78.996 1.748 78.702 2.196 78.498C2.644 78.29 3.172 78.188 3.78 78.192C4.344 78.196 4.846 78.298 5.286 78.498C5.73 78.698 6.098 78.986 6.39 79.362C6.686 79.738 6.896 80.19 7.02 80.718L5.538 80.988C5.482 80.704 5.372 80.454 5.208 80.238C5.044 80.022 4.838 79.854 4.59 79.734C4.342 79.614 4.066 79.55 3.762 79.542C3.47 79.538 3.208 79.584 2.976 79.68C2.744 79.772 2.56 79.904 2.424 80.076C2.288 80.244 2.22 80.434 2.22 80.646C2.22 80.882 2.314 81.084 2.502 81.252C2.694 81.42 2.996 81.564 3.408 81.684L4.962 82.134C5.71 82.35 6.248 82.644 6.576 83.016C6.908 83.384 7.074 83.874 7.074 84.486C7.074 85.022 6.94 85.492 6.672 85.896C6.404 86.3 6.028 86.616 5.544 86.844C5.06 87.068 4.498 87.18 3.858 87.18ZM11.1472 87.18C10.5832 87.18 10.0752 87.048 9.62316 86.784C9.17516 86.516 8.81916 86.146 8.55516 85.674C8.29116 85.202 8.15916 84.66 8.15916 84.048V81.42C8.15916 80.764 8.28916 80.194 8.54916 79.71C8.81316 79.226 9.18116 78.852 9.65316 78.588C10.1292 78.324 10.6812 78.192 11.3092 78.192C11.7452 78.192 12.1592 78.266 12.5512 78.414C12.9432 78.558 13.2912 78.79 13.5952 79.11L12.5512 80.124C12.3992 79.944 12.2132 79.802 11.9932 79.698C11.7772 79.594 11.5492 79.542 11.3092 79.542C10.9732 79.542 10.6792 79.622 10.4272 79.782C10.1752 79.938 9.97916 80.144 9.83916 80.4C9.70316 80.656 9.63516 80.93 9.63516 81.222V82.656L9.37116 82.368C9.61916 82.08 9.91716 81.856 10.2652 81.696C10.6132 81.532 10.9772 81.45 11.3572 81.45C11.9012 81.45 12.3812 81.574 12.7972 81.822C13.2132 82.066 13.5412 82.402 13.7812 82.83C14.0212 83.254 14.1412 83.738 14.1412 84.282C14.1412 84.822 14.0032 85.312 13.7272 85.752C13.4552 86.188 13.0932 86.536 12.6412 86.796C12.1892 87.052 11.6912 87.18 11.1472 87.18ZM11.1472 85.794C11.4272 85.794 11.6832 85.728 11.9152 85.596C12.1472 85.46 12.3312 85.278 12.4672 85.05C12.6072 84.818 12.6772 84.562 12.6772 84.282C12.6772 84.002 12.6092 83.746 12.4732 83.514C12.3372 83.282 12.1532 83.098 11.9212 82.962C11.6932 82.822 11.4392 82.752 11.1592 82.752C10.8792 82.752 10.6232 82.822 10.3912 82.962C10.1592 83.098 9.97516 83.282 9.83916 83.514C9.70316 83.746 9.63516 84.002 9.63516 84.282C9.63516 84.554 9.70116 84.806 9.83316 85.038C9.96916 85.266 10.1512 85.45 10.3792 85.59C10.6112 85.726 10.8672 85.794 11.1472 85.794ZM18.5043 87.18C17.8923 87.18 17.3523 87.05 16.8843 86.79C16.4163 86.526 16.0503 86.16 15.7863 85.692C15.5263 85.224 15.3963 84.684 15.3963 84.072V81.288C15.3963 80.676 15.5263 80.136 15.7863 79.668C16.0503 79.2 16.4163 78.836 16.8843 78.576C17.3523 78.312 17.8923 78.18 18.5043 78.18C19.1163 78.18 19.6543 78.312 20.1183 78.576C20.5863 78.836 20.9523 79.2 21.2163 79.668C21.4803 80.136 21.6123 80.676 21.6123 81.288V84.072C21.6123 84.684 21.4803 85.224 21.2163 85.692C20.9523 86.16 20.5863 86.526 20.1183 86.79C19.6543 87.05 19.1163 87.18 18.5043 87.18ZM18.5043 85.806C18.8083 85.806 19.0843 85.734 19.3323 85.59C19.5803 85.442 19.7763 85.246 19.9203 85.002C20.0643 84.754 20.1363 84.478 20.1363 84.174V81.18C20.1363 80.872 20.0643 80.596 19.9203 80.352C19.7763 80.104 19.5803 79.908 19.3323 79.764C19.0843 79.616 18.8083 79.542 18.5043 79.542C18.2003 79.542 17.9243 79.616 17.6763 79.764C17.4283 79.908 17.2323 80.104 17.0883 80.352C16.9443 80.596 16.8723 80.872 16.8723 81.18V84.174C16.8723 84.478 16.9443 84.754 17.0883 85.002C17.2323 85.246 17.4283 85.442 17.6763 85.59C17.9243 85.734 18.2003 85.806 18.5043 85.806ZM22.9587 88.53L23.0427 87.906C23.2267 87.922 23.3727 87.89 23.4807 87.81C23.5887 87.734 23.6607 87.624 23.6967 87.48C23.7367 87.34 23.7467 87.18 23.7267 87H22.9587V85.458H24.4407V87.06C24.4407 87.584 24.3167 87.98 24.0687 88.248C23.8207 88.516 23.4507 88.61 22.9587 88.53ZM29.6152 87.18C29.0032 87.18 28.4632 87.05 27.9952 86.79C27.5272 86.526 27.1612 86.16 26.8972 85.692C26.6372 85.224 26.5072 84.684 26.5072 84.072V81.288C26.5072 80.676 26.6372 80.136 26.8972 79.668C27.1612 79.2 27.5272 78.836 27.9952 78.576C28.4632 78.312 29.0032 78.18 29.6152 78.18C30.2272 78.18 30.7652 78.312 31.2292 78.576C31.6972 78.836 32.0632 79.2 32.3272 79.668C32.5912 80.136 32.7232 80.676 32.7232 81.288V84.072C32.7232 84.684 32.5912 85.224 32.3272 85.692C32.0632 86.16 31.6972 86.526 31.2292 86.79C30.7652 87.05 30.2272 87.18 29.6152 87.18ZM29.6152 85.806C29.9192 85.806 30.1952 85.734 30.4433 85.59C30.6912 85.442 30.8872 85.246 31.0312 85.002C31.1753 84.754 31.2473 84.478 31.2473 84.174V81.18C31.2473 80.872 31.1753 80.596 31.0312 80.352C30.8872 80.104 30.6912 79.908 30.4433 79.764C30.1952 79.616 29.9192 79.542 29.6152 79.542C29.3112 79.542 29.0352 79.616 28.7872 79.764C28.5392 79.908 28.3432 80.104 28.1992 80.352C28.0552 80.596 27.9832 80.872 27.9832 81.18V84.174C27.9832 84.478 28.0552 84.754 28.1992 85.002C28.3432 85.246 28.5392 85.442 28.7872 85.59C29.0352 85.734 29.3112 85.806 29.6152 85.806ZM37.2977 87.18C36.6857 87.18 36.1457 87.05 35.6777 86.79C35.2097 86.526 34.8437 86.16 34.5797 85.692C34.3197 85.224 34.1897 84.684 34.1897 84.072V81.288C34.1897 80.676 34.3197 80.136 34.5797 79.668C34.8437 79.2 35.2097 78.836 35.6777 78.576C36.1457 78.312 36.6857 78.18 37.2977 78.18C37.9097 78.18 38.4477 78.312 38.9117 78.576C39.3797 78.836 39.7457 79.2 40.0097 79.668C40.2737 80.136 40.4057 80.676 40.4057 81.288V84.072C40.4057 84.684 40.2737 85.224 40.0097 85.692C39.7457 86.16 39.3797 86.526 38.9117 86.79C38.4477 87.05 37.9097 87.18 37.2977 87.18ZM37.2977 85.806C37.6017 85.806 37.8777 85.734 38.1257 85.59C38.3737 85.442 38.5697 85.246 38.7137 85.002C38.8577 84.754 38.9297 84.478 38.9297 84.174V81.18C38.9297 80.872 38.8577 80.596 38.7137 80.352C38.5697 80.104 38.3737 79.908 38.1257 79.764C37.8777 79.616 37.6017 79.542 37.2977 79.542C36.9937 79.542 36.7177 79.616 36.4697 79.764C36.2217 79.908 36.0257 80.104 35.8817 80.352C35.7377 80.596 35.6657 80.872 35.6657 81.18V84.174C35.6657 84.478 35.7377 84.754 35.8817 85.002C36.0257 85.246 36.2217 85.442 36.4697 85.59C36.7177 85.734 36.9937 85.806 37.2977 85.806Z" fill="#1E2029"/>
<path opacity="0.4" d="M3.102 32.194V30.772H4.548V32.194H3.102ZM3.102 22.594V21.172H4.548V22.594H3.102ZM3.858 31.18C3.25 31.18 2.706 31.068 2.226 30.844C1.746 30.62 1.352 30.304 1.044 29.896C0.74 29.488 0.546 29.004 0.462 28.444L1.89 28.216C2.002 28.708 2.242 29.1 2.61 29.392C2.982 29.68 3.426 29.824 3.942 29.824C4.438 29.824 4.846 29.708 5.166 29.476C5.486 29.24 5.646 28.942 5.646 28.582C5.646 28.33 5.57 28.126 5.418 27.97C5.266 27.81 5.022 27.678 4.686 27.574L2.604 26.926C1.392 26.55 0.786 25.814 0.786 24.718C0.786 24.206 0.908 23.76 1.152 23.38C1.4 22.996 1.748 22.702 2.196 22.498C2.644 22.29 3.172 22.188 3.78 22.192C4.344 22.196 4.846 22.298 5.286 22.498C5.73 22.698 6.098 22.986 6.39 23.362C6.686 23.738 6.896 24.19 7.02 24.718L5.538 24.988C5.482 24.704 5.372 24.454 5.208 24.238C5.044 24.022 4.838 23.854 4.59 23.734C4.342 23.614 4.066 23.55 3.762 23.542C3.47 23.538 3.208 23.584 2.976 23.68C2.744 23.772 2.56 23.904 2.424 24.076C2.288 24.244 2.22 24.434 2.22 24.646C2.22 24.882 2.314 25.084 2.502 25.252C2.694 25.42 2.996 25.564 3.408 25.684L4.962 26.134C5.71 26.35 6.248 26.644 6.576 27.016C6.908 27.384 7.074 27.874 7.074 28.486C7.074 29.022 6.94 29.492 6.672 29.896C6.404 30.3 6.028 30.616 5.544 30.844C5.06 31.068 4.498 31.18 3.858 31.18ZM10.9852 31.18C10.4132 31.18 9.90516 31.064 9.46116 30.832C9.01716 30.6 8.66916 30.278 8.41716 29.866C8.16516 29.454 8.03916 28.982 8.03916 28.45C8.03916 27.974 8.14916 27.532 8.36916 27.124C8.58916 26.716 8.91116 26.39 9.33516 26.146L9.30516 26.608C8.97316 26.356 8.71516 26.066 8.53116 25.738C8.35116 25.406 8.26116 25.034 8.26116 24.622C8.26116 24.126 8.37716 23.696 8.60916 23.332C8.84516 22.968 9.16716 22.686 9.57516 22.486C9.98316 22.282 10.4532 22.18 10.9852 22.18C11.5172 22.18 11.9872 22.282 12.3952 22.486C12.8072 22.686 13.1292 22.968 13.3612 23.332C13.5972 23.696 13.7152 24.126 13.7152 24.622C13.7152 25.034 13.6272 25.404 13.4512 25.732C13.2792 26.06 13.0172 26.356 12.6652 26.62L12.6592 26.152C13.0752 26.388 13.3932 26.712 13.6132 27.124C13.8372 27.532 13.9492 27.974 13.9492 28.45C13.9492 28.982 13.8212 29.454 13.5652 29.866C13.3132 30.278 12.9632 30.6 12.5152 30.832C12.0712 31.064 11.5612 31.18 10.9852 31.18ZM10.9852 29.818C11.4092 29.818 11.7532 29.702 12.0172 29.47C12.2852 29.238 12.4192 28.898 12.4192 28.45C12.4192 28.002 12.2872 27.662 12.0232 27.43C11.7592 27.194 11.4132 27.076 10.9852 27.076C10.5612 27.076 10.2192 27.194 9.95916 27.43C9.69916 27.662 9.56916 28.002 9.56916 28.45C9.56916 28.898 9.69916 29.238 9.95916 29.47C10.2192 29.702 10.5612 29.818 10.9852 29.818ZM10.9852 25.702C11.3412 25.702 11.6292 25.614 11.8492 25.438C12.0732 25.258 12.1852 24.986 12.1852 24.622C12.1852 24.258 12.0732 23.988 11.8492 23.812C11.6292 23.632 11.3412 23.542 10.9852 23.542C10.6332 23.542 10.3452 23.632 10.1212 23.812C9.90116 23.988 9.79116 24.258 9.79116 24.622C9.79116 24.986 9.90116 25.258 10.1212 25.438C10.3452 25.614 10.6332 25.702 10.9852 25.702ZM18.3988 31.18C17.7868 31.18 17.2468 31.05 16.7788 30.79C16.3108 30.526 15.9448 30.16 15.6808 29.692C15.4208 29.224 15.2908 28.684 15.2908 28.072V25.288C15.2908 24.676 15.4208 24.136 15.6808 23.668C15.9448 23.2 16.3108 22.836 16.7788 22.576C17.2468 22.312 17.7868 22.18 18.3988 22.18C19.0108 22.18 19.5488 22.312 20.0128 22.576C20.4808 22.836 20.8468 23.2 21.1108 23.668C21.3748 24.136 21.5068 24.676 21.5068 25.288V28.072C21.5068 28.684 21.3748 29.224 21.1108 29.692C20.8468 30.16 20.4808 30.526 20.0128 30.79C19.5488 31.05 19.0108 31.18 18.3988 31.18ZM18.3988 29.806C18.7028 29.806 18.9788 29.734 19.2268 29.59C19.4748 29.442 19.6708 29.246 19.8148 29.002C19.9588 28.754 20.0308 28.478 20.0308 28.174V25.18C20.0308 24.872 19.9588 24.596 19.8148 24.352C19.6708 24.104 19.4748 23.908 19.2268 23.764C18.9788 23.616 18.7028 23.542 18.3988 23.542C18.0948 23.542 17.8188 23.616 17.5708 23.764C17.3228 23.908 17.1268 24.104 16.9828 24.352C16.8388 24.596 16.7668 24.872 16.7668 25.18V28.174C16.7668 28.478 16.8388 28.754 16.9828 29.002C17.1268 29.246 17.3228 29.442 17.5708 29.59C17.8188 29.734 18.0948 29.806 18.3988 29.806ZM22.8532 32.53L22.9372 31.906C23.1212 31.922 23.2672 31.89 23.3752 31.81C23.4832 31.734 23.5552 31.624 23.5912 31.48C23.6312 31.34 23.6412 31.18 23.6212 31H22.8532V29.458H24.3352V31.06C24.3352 31.584 24.2112 31.98 23.9632 32.248C23.7152 32.516 23.3452 32.61 22.8532 32.53ZM29.5098 31.18C28.8978 31.18 28.3578 31.05 27.8898 30.79C27.4218 30.526 27.0558 30.16 26.7918 29.692C26.5318 29.224 26.4018 28.684 26.4018 28.072V25.288C26.4018 24.676 26.5318 24.136 26.7918 23.668C27.0558 23.2 27.4218 22.836 27.8898 22.576C28.3578 22.312 28.8978 22.18 29.5098 22.18C30.1218 22.18 30.6598 22.312 31.1238 22.576C31.5918 22.836 31.9578 23.2 32.2218 23.668C32.4858 24.136 32.6178 24.676 32.6178 25.288V28.072C32.6178 28.684 32.4858 29.224 32.2218 29.692C31.9578 30.16 31.5918 30.526 31.1238 30.79C30.6598 31.05 30.1218 31.18 29.5098 31.18ZM29.5098 29.806C29.8138 29.806 30.0898 29.734 30.3378 29.59C30.5858 29.442 30.7818 29.246 30.9258 29.002C31.0698 28.754 31.1418 28.478 31.1418 28.174V25.18C31.1418 24.872 31.0698 24.596 30.9258 24.352C30.7818 24.104 30.5858 23.908 30.3378 23.764C30.0898 23.616 29.8138 23.542 29.5098 23.542C29.2058 23.542 28.9298 23.616 28.6818 23.764C28.4338 23.908 28.2378 24.104 28.0938 24.352C27.9498 24.596 27.8778 24.872 27.8778 25.18V28.174C27.8778 28.478 27.9498 28.754 28.0938 29.002C28.2378 29.246 28.4338 29.442 28.6818 29.59C28.9298 29.734 29.2058 29.806 29.5098 29.806ZM37.1922 31.18C36.5802 31.18 36.0402 31.05 35.5722 30.79C35.1042 30.526 34.7382 30.16 34.4742 29.692C34.2142 29.224 34.0842 28.684 34.0842 28.072V25.288C34.0842 24.676 34.2142 24.136 34.4742 23.668C34.7382 23.2 35.1042 22.836 35.5722 22.576C36.0402 22.312 36.5802 22.18 37.1922 22.18C37.8042 22.18 38.3422 22.312 38.8062 22.576C39.2742 22.836 39.6402 23.2 39.9042 23.668C40.1682 24.136 40.3002 24.676 40.3002 25.288V28.072C40.3002 28.684 40.1682 29.224 39.9042 29.692C39.6402 30.16 39.2742 30.526 38.8062 30.79C38.3422 31.05 37.8042 31.18 37.1922 31.18ZM37.1922 29.806C37.4962 29.806 37.7722 29.734 38.0202 29.59C38.2682 29.442 38.4642 29.246 38.6082 29.002C38.7522 28.754 38.8242 28.478 38.8242 28.174V25.18C38.8242 24.872 38.7522 24.596 38.6082 24.352C38.4642 24.104 38.2682 23.908 38.0202 23.764C37.7722 23.616 37.4962 23.542 37.1922 23.542C36.8882 23.542 36.6122 23.616 36.3642 23.764C36.1162 23.908 35.9202 24.104 35.7762 24.352C35.6322 24.596 35.5602 24.872 35.5602 25.18V28.174C35.5602 28.478 35.6322 28.754 35.7762 29.002C35.9202 29.246 36.1162 29.442 36.3642 29.59C36.6122 29.734 36.8882 29.806 37.1922 29.806Z" fill="#1E2029"/>
<defs>
<filter id="filter0_d_2_149" x="-32" y="10" width="729" height="180" filterUnits="userSpaceOnUse" color-interpolation-filters="sRGB">
<feFlood flood-opacity="0" result="BackgroundImageFix"/>
<feColorMatrix in="SourceAlpha" type="matrix" values="0 0 0 0 0 0 0 0 0 0 0 0 0 0 0 0 0 0 127 0" result="hardAlpha"/>
<feOffset dy="4"/>
<feGaussianBlur stdDeviation="13"/>
<feComposite in2="hardAlpha" operator="out"/>
<feColorMatrix type="matrix" values="0 0 0 0 0.588235 0 0 0 0 0.392157 0 0 0 0 1 0 0 0 0.5 0"/>
<feBlend mode="normal" in2="BackgroundImageFix" result="effect1_dropShadow_2_149"/>
<feBlend mode="normal" in="SourceGraphic" in2="effect1_dropShadow_2_149" result="shape"/>
</filter>
<linearGradient id="paint0_linear_2_149" x1="522.978" y1="118.5" x2="372.217" y2="118.5" gradientUnits="userSpaceOnUse">
<stop offset="0.331818" stop-color="#F9F9F9"/>
<stop offset="0.793401" stop-color="#F9F9F9" stop-opacity="0"/>
</linearGradient>
<linearGradient id="paint1_linear_2_149" x1="91.3275" y1="97.5" x2="-25.3044" y2="97.5" gradientUnits="userSpaceOnUse">
<stop offset="0.409578" stop-color="#F8F8F8"/>
<stop offset="0.793401" stop-color="#F4F4F4" stop-opacity="0"/>
</linearGradient>
</defs>
</svg>
