<svg width="44" height="40" viewBox="0 0 44 40" fill="none" xmlns="http://www.w3.org/2000/svg">
<g clip-path="url(#clip0_2_307)">
<path d="M12.1185 19.6401C12.1185 17.8003 12.5718 16.2271 13.4784 14.9206C14.3849 13.6141 15.6248 12.6276 17.1979 11.961C18.6378 11.3477 20.4109 10.9078 22.5173 10.6411C23.2372 10.5611 24.4104 10.4545 26.0369 10.3212V9.64125C26.0369 7.93478 25.8502 6.78828 25.4769 6.20167C24.917 5.40176 24.0371 5.00181 22.8373 5.00181H22.5173C21.6374 5.0818 20.8775 5.36177 20.2376 5.84171C19.5976 6.32165 19.1843 6.98825 18.9977 7.84147C18.8911 8.37473 18.6244 8.68137 18.1978 8.76136L13.5984 8.20143C13.1451 8.09476 12.9185 7.85479 12.9185 7.48151C12.9185 7.40152 12.9318 7.30821 12.9584 7.20155C13.4117 4.82851 14.5249 3.06872 16.298 1.92218C18.0712 0.775638 20.1442 0.135715 22.5173 0.00241089H23.5172C26.5568 0.00241089 28.9298 0.788997 30.6363 2.36213C30.904 2.62998 31.1513 2.91741 31.3762 3.22202C31.6028 3.52867 31.7828 3.80196 31.9162 4.04193C32.0495 4.2819 32.1695 4.62854 32.2761 5.0818C32.3828 5.53507 32.4627 5.84839 32.5161 6.02169C32.5694 6.19499 32.6094 6.5683 32.6361 7.14155C32.6627 7.71481 32.6761 8.05476 32.6761 8.16143V17.8403C32.6761 18.5335 32.7761 19.1668 32.976 19.74C33.176 20.3133 33.3693 20.7266 33.556 20.9799C33.7426 21.2332 34.0492 21.6398 34.4759 22.1997C34.6358 22.4397 34.7158 22.653 34.7158 22.8397C34.7158 23.053 34.6092 23.2396 34.3959 23.3996C32.1828 25.3194 30.9829 26.3592 30.7963 26.5192C30.4763 26.7592 30.0897 26.7859 29.6364 26.5992C29.2631 26.2793 28.9365 25.9726 28.6566 25.6793C28.3766 25.386 28.1766 25.1727 28.0566 25.0394C27.9366 24.9061 27.7433 24.6461 27.4767 24.2595C27.2101 23.8729 27.0234 23.6129 26.9168 23.4796C25.4236 25.1061 23.9571 26.1193 22.5173 26.5192C21.6107 26.7859 20.4909 26.9192 19.1577 26.9192C17.1046 26.9192 15.4182 26.2859 14.0983 25.0194C12.7785 23.7529 12.1185 21.9598 12.1185 19.6401ZM18.9977 18.8402C18.9977 19.88 19.2577 20.7132 19.7776 21.3399C20.2976 21.9665 20.9975 22.2797 21.8774 22.2797C21.9574 22.2797 22.0707 22.2664 22.2173 22.2397C22.364 22.2131 22.4639 22.1997 22.5173 22.1997C23.6372 21.9065 24.5037 21.1865 25.117 20.04C25.4103 19.5334 25.6302 18.9801 25.7769 18.3802C25.9235 17.7803 26.0035 17.2937 26.0169 16.9204C26.0302 16.5471 26.0369 15.9338 26.0369 15.0806V14.0807C24.4904 14.0807 23.3172 14.1874 22.5173 14.4007C20.1709 15.0673 18.9977 16.5471 18.9977 18.8402Z" fill="black"/>
<path d="M0.719914 30.9987C0.426589 30.812 0.213294 30.8254 0.0799904 31.0387C0.0266368 31.1187 0 31.1987 0 31.2787C0 31.412 0.0799904 31.5453 0.239971 31.6786C3.17294 34.3183 6.49254 36.3647 10.1988 37.8179C13.905 39.271 17.8379 39.9976 21.9974 39.9976C24.6904 39.9976 27.45 39.6243 30.2764 38.8778C33.1027 38.1312 35.6624 37.078 37.9554 35.7181C38.702 35.2649 39.3153 34.8649 39.7952 34.5183C40.1685 34.2516 40.2418 33.9583 40.0152 33.6384C39.7885 33.3184 39.4753 33.2384 39.0753 33.3984C38.9686 33.4517 38.7887 33.5317 38.5354 33.6384C38.282 33.7451 38.0887 33.825 37.9554 33.8784C32.8627 35.8248 27.7033 36.798 22.4773 36.798C14.6382 36.798 7.38575 34.8649 0.719914 30.9987Z" fill="#FF9900"/>
<path d="M36.0357 31.3987C35.929 31.5053 35.849 31.6119 35.7957 31.7186C35.769 31.7719 35.7557 31.8119 35.7557 31.8386C35.729 31.8919 35.7424 31.9453 35.7957 31.9986C35.849 32.0519 35.9557 32.0786 36.1157 32.0786C36.6756 31.9986 37.2888 31.9186 37.9554 31.8386C38.5687 31.7853 39.1019 31.7586 39.5553 31.7586C40.7817 31.7586 41.5283 31.9186 41.795 32.2386C41.9016 32.3719 41.955 32.5852 41.955 32.8785C41.955 33.785 41.4617 35.3982 40.4751 37.7179C40.3952 37.9312 40.4351 38.0779 40.5951 38.1578C40.6484 38.1845 40.7018 38.1978 40.7551 38.1978C40.8617 38.1978 40.9817 38.1445 41.1151 38.0379C42.0216 37.2646 42.7282 36.2448 43.2348 34.9782C43.7414 33.7117 43.9947 32.6118 43.9947 31.6786V31.3987C43.9947 31.0787 43.9414 30.8387 43.8347 30.6787C43.5948 30.3855 42.8749 30.1855 41.675 30.0788C41.435 30.0255 41.1817 30.0121 40.9151 30.0388C39.9552 30.0655 38.9686 30.2121 37.9554 30.4788C37.3422 30.6387 36.7022 30.9454 36.0357 31.3987Z" fill="#FF9900"/>
</g>
<defs>
<clipPath id="clip0_2_307">
<rect width="43.9947" height="40" fill="white"/>
</clipPath>
</defs>
</svg>
