<svg width="12" height="12" viewBox="0 0 12 12" fill="none" xmlns="http://www.w3.org/2000/svg">
    <path fill-rule="evenodd" clip-rule="evenodd"
          d="M8.93219 5.05931C9.09072 5.06105 9.24042 5.12268 9.34837 5.23063C9.45632 5.33859 9.51369 5.48403 9.50786 5.63497L9.38293 8.85515C9.37705 9.0061 9.30845 9.15017 9.19221 9.25569C9.07598 9.3612 8.92163 9.41952 8.7631 9.41782L5.38121 9.38104C5.22458 9.37675 5.07755 9.31401 4.97181 9.20636C4.86606 9.09871 4.81005 8.95475 4.81584 8.80549C4.82163 8.65623 4.88876 8.51361 5.00277 8.40834C5.11678 8.30308 5.26854 8.2436 5.42537 8.24271L7.36404 8.26379L2.64715 3.54691C2.53918 3.43893 2.48181 3.29345 2.48767 3.14248C2.49353 2.9915 2.56213 2.8474 2.67839 2.74186C2.79465 2.63632 2.94903 2.578 3.10759 2.57973C3.26615 2.58145 3.41588 2.64308 3.52386 2.75106L8.24075 7.46794L8.31236 5.62197C8.31824 5.47103 8.38684 5.32696 8.50308 5.22144C8.61932 5.11593 8.77367 5.05761 8.93219 5.05931V5.05931Z"
          fill="#F82E2E"/>
</svg>
