<svg width="27" height="40" viewBox="0 0 27 40" fill="none" xmlns="http://www.w3.org/2000/svg">
    <path fill-rule="evenodd" clip-rule="evenodd"
          d="M1.79935 14.8604L24.2648 13.6172C25.0132 13.5758 25.7757 14.245 25.6272 14.9797C24.0174 22.9602 24.3022 30.8385 26.0531 38.6376C26.2175 39.3686 25.4402 40 24.6907 40H1.11796C0.368786 40 -0.161891 39.1194 0.0451215 38.3991C1.83528 32.1617 2.303 25.1518 0.640976 16.1888C0.504325 15.4522 1.05093 14.9019 1.79935 14.8604Z"
          fill="#268ACB"/>
    <path fill-rule="evenodd" clip-rule="evenodd"
          d="M7.26647 18.1308C7.81196 18.1308 8.2545 18.5729 8.2545 19.1184C8.2545 19.6643 7.81196 20.1065 7.26647 20.1065C6.72098 20.1065 6.27844 19.6643 6.27844 19.1184C6.27844 18.5729 6.72098 18.1308 7.26647 18.1308ZM17.4467 22.4988C17.4427 21.9744 17.8645 21.5455 18.3892 21.5415C18.914 21.5374 19.3428 21.9592 19.3469 22.4839L19.3472 22.5176L19.3469 22.5254H19.3472V22.5591H19.3509C19.3509 24.3745 18.6151 26.018 17.4253 27.2078C16.2354 28.3977 14.5919 29.1335 12.7766 29.1335C10.9612 29.1335 9.31734 28.3977 8.12748 27.2078C6.938 26.018 6.20216 24.3745 6.20216 22.5591H6.20586V22.5262C6.20586 22.0014 6.631 21.5759 7.15575 21.5759C7.6805 21.5759 8.106 22.0014 8.106 22.5262V22.5591H8.10971C8.10971 23.8479 8.63187 25.0148 9.47621 25.8591C10.3209 26.7034 11.4874 27.226 12.7766 27.226C14.0653 27.226 15.2322 26.7034 16.0765 25.8591C16.9209 25.0148 17.4434 23.8479 17.4434 22.5591H17.4471V22.5339L17.4467 22.5328V22.4988ZM18.2863 18.1308C18.8321 18.1308 19.2743 18.5729 19.2743 19.1184C19.2743 19.6643 18.8321 20.1065 18.2863 20.1065C17.7408 20.1065 17.2986 19.6643 17.2986 19.1184C17.2986 18.5729 17.7408 18.1308 18.2863 18.1308Z"
          fill="white"/>
    <path fill-rule="evenodd" clip-rule="evenodd"
          d="M11.0349 13.3532L10.0128 4.76906L10.4894 4.27504C10.5113 4.32022 10.5339 4.36022 10.5579 4.39429C10.8983 4.22505 11.7793 3.7277 12.3914 3.37885C12.5932 3.59364 12.8802 3.72807 13.1984 3.72807C13.5354 3.72807 13.8372 3.57735 14.0405 3.33997L16.1721 3.80139L16.7579 4.17283C16.7579 4.17283 17.5945 11.3172 17.813 13.2643L11.0871 13.6365L11.0349 13.3532ZM11.8341 1.75053L11.1031 0.51105C11.1031 0.51105 11.4182 0.37477 11.5971 0.451427C11.7759 0.528085 11.9885 0.638812 12.0992 0.587707C12.21 0.536602 12.6103 0.119245 12.7806 0.0596225C12.951 0 13.0021 0 13.0021 0C13.0021 0 13.5302 0.161832 13.6579 0.289595C13.7857 0.417357 13.8538 0.47698 13.9816 0.425875C14.1094 0.37477 14.4752 0.0766574 14.62 0.0596225C14.7648 0.0425875 14.8585 0.051105 14.8585 0.051105L14.4638 1.56426C14.2941 1.66017 14.1294 1.75386 13.9812 1.8383C13.7809 1.63795 13.5042 1.51389 13.1984 1.51389C12.8769 1.51389 12.5873 1.65091 12.3851 1.86977L11.8341 1.75053Z"
          fill="#8FC43F"/>
    <path fill-rule="evenodd" clip-rule="evenodd"
          d="M10.2002 1.39651C10.1024 1.61167 10.1591 3.83029 10.5579 4.3943C10.8983 4.22506 11.7793 3.72771 12.3914 3.37886C12.5932 3.59365 12.8802 3.72808 13.1984 3.72808C13.5353 3.72808 13.8372 3.57736 14.0405 3.33998L16.1965 3.80659C16.2943 3.5918 16.2376 1.37318 15.8388 0.809174C15.494 0.980634 14.5941 1.48909 13.9812 1.83831C13.7809 1.63796 13.5042 1.5139 13.1984 1.5139C12.8769 1.5139 12.5873 1.65092 12.3851 1.86979L10.2002 1.39651Z"
          fill="#1EAC4B"/>
    <path fill-rule="evenodd" clip-rule="evenodd"
          d="M15.5503 6.61033L18.5459 7.2821L18.6473 7.30469L18.5459 7.2821L17.1971 13.2984L13.3628 13.5106L14.8033 7.08397C14.8785 6.74846 15.2148 6.53515 15.5503 6.61033ZM22.3539 8.1357L25.1191 8.75563C25.4547 8.8308 25.668 9.16706 25.5928 9.50257L24.8366 12.8755L21.0022 13.0877L22.108 8.15422C22.1917 8.15014 22.2736 8.14385 22.3539 8.1357Z"
          fill="#DF3286"/>
    <path fill-rule="evenodd" clip-rule="evenodd"
          d="M18.5459 7.28208L18.6473 7.30467C18.1378 6.92545 16.8264 6.05889 17.1442 5.33564C17.5389 4.43686 18.5436 4.51982 19.1254 5.07531C19.7072 5.63116 20.0312 6.58253 20.0664 7.15431C20.0664 7.15431 20.4408 7.03729 20.7212 7.17542C21.0019 7.31355 21.053 7.33874 21.053 7.33874C21.053 7.33874 22.4591 5.54377 23.4082 5.90039C24.3574 6.25665 24.6229 7.00507 24.3515 7.33059C24.0985 7.63463 23.2708 8.09716 22.108 8.15419L21.0022 13.0877L17.1971 13.2984L18.5459 7.28208ZM19.3372 6.91397C19.3372 6.91397 19.0243 5.69893 18.5973 5.48859C18.1703 5.27824 17.907 5.36268 17.7845 5.61117C17.6623 5.86003 18.4825 6.42996 19.3372 6.91397ZM23.4797 6.6403C23.4797 6.6403 23.7863 6.8862 23.6697 7.07432C23.5534 7.26282 22.4965 7.47909 22.271 7.48687C22.0454 7.49464 21.7751 7.48057 21.7751 7.48057C21.7751 7.48057 22.4261 6.88213 22.7776 6.68289C23.129 6.48365 23.3519 6.54587 23.4797 6.6403Z"
          fill="#EF9720"/>
    <path fill-rule="evenodd" clip-rule="evenodd"
          d="M1.08388 10.2277L4.66012 9.36443L4.78122 9.33555L4.66012 9.36443L5.76221 13.9309L1.26683 14.1798L0.530988 11.132C0.434333 10.7313 0.683192 10.3247 1.08388 10.2277ZM9.20661 8.26716L12.5081 7.47022C12.9088 7.37356 13.3157 7.62242 13.4124 8.02274L14.7189 13.4354L10.2232 13.6843L8.95183 8.41714C9.03959 8.36826 9.1244 8.31826 9.20661 8.26716Z"
          fill="#EF9720"/>
    <path fill-rule="evenodd" clip-rule="evenodd"
          d="M4.66012 9.36443L4.78122 9.33555C4.03242 9.19705 2.16375 8.9593 2.12265 8.01349C2.07154 6.83844 3.19585 6.39553 4.11537 6.68513C5.03526 6.97472 5.88701 7.8261 6.22771 8.42233C6.22771 8.42233 6.56804 8.09866 6.94281 8.09866C7.31758 8.09866 7.38572 8.09866 7.38572 8.09866C7.38572 8.09866 7.94787 5.42454 9.15699 5.30566C10.3665 5.18642 11.0475 5.85041 10.9286 6.34443C10.8172 6.80548 10.1721 7.74056 8.95183 8.41714L10.2232 13.6843L5.76221 13.9309L4.66012 9.36443ZM5.31634 8.55009C5.31634 8.55009 4.33683 7.40911 3.76615 7.40911C3.19585 7.40911 2.95736 7.63909 2.95736 7.9709C2.95736 8.30308 4.14092 8.48195 5.31634 8.55009ZM9.62545 6.06335C9.62545 6.06335 10.0854 6.16556 10.0598 6.4296C10.0343 6.69364 9.01219 7.48577 8.7737 7.61353C8.53521 7.7413 8.23747 7.86906 8.23747 7.86906C8.23747 7.86906 8.62039 6.88103 8.89295 6.48071C9.1655 6.08039 9.43807 6.02928 9.62545 6.06335Z"
          fill="#E41F29"/>
</svg>
