<svg width="17" height="16" viewBox="0 0 17 16" fill="none" xmlns="http://www.w3.org/2000/svg">
    <path d="M10.6047 4.83333C10.478 4.83333 10.3513 4.78667 10.2513 4.68667L8.89799 3.33333L7.54466 4.68667C7.35133 4.88 7.03133 4.88 6.83799 4.68667C6.64466 4.49333 6.64466 4.17333 6.83799 3.98L8.54466 2.27333C8.73799 2.08 9.05799 2.08 9.25133 2.27333L10.958 3.98C11.1513 4.17333 11.1513 4.49333 10.958 4.68667C10.858 4.78667 10.7313 4.83333 10.6047 4.83333Z"
          fill="white"/>
    <path d="M8.89801 9.95333C8.62468 9.95333 8.39801 9.72667 8.39801 9.45333V2.67333C8.39801 2.4 8.62468 2.17333 8.89801 2.17333C9.17134 2.17333 9.39801 2.4 9.39801 2.67333V9.45333C9.39801 9.73333 9.17134 9.95333 8.89801 9.95333Z"
          fill="white"/>
    <path d="M8.97799 13.8333C5.54465 13.8333 3.14465 11.4333 3.14465 8C3.14465 7.72667 3.37132 7.5 3.64465 7.5C3.91799 7.5 4.14465 7.72667 4.14465 8C4.14465 10.8467 6.13132 12.8333 8.97799 12.8333C11.8247 12.8333 13.8113 10.8467 13.8113 8C13.8113 7.72667 14.038 7.5 14.3113 7.5C14.5847 7.5 14.8113 7.72667 14.8113 8C14.8113 11.4333 12.4113 13.8333 8.97799 13.8333Z"
          fill="white"/>
</svg>
