<svg width="17" height="16" viewBox="0 0 17 16" fill="none" xmlns="http://www.w3.org/2000/svg">
<path d="M8.85399 9.99333C8.72732 9.99333 8.60065 9.94667 8.50065 9.84667L6.79399 8.14C6.60065 7.94667 6.60065 7.62667 6.79399 7.43333C6.98732 7.24 7.30732 7.24 7.50065 7.43333L8.85399 8.78667L10.2073 7.43333C10.4007 7.24 10.7207 7.24 10.914 7.43333C11.1073 7.62667 11.1073 7.94667 10.914 8.14L9.20732 9.84667C9.10732 9.94667 8.98065 9.99333 8.85399 9.99333Z" fill="white"/>
<path d="M8.85394 9.94666C8.58061 9.94666 8.35394 9.72 8.35394 9.44666V2.66666C8.35394 2.39333 8.58061 2.16666 8.85394 2.16666C9.12728 2.16666 9.35394 2.39333 9.35394 2.66666V9.44666C9.35394 9.72 9.12728 9.94666 8.85394 9.94666Z" fill="white"/>
<path d="M8.93398 13.9533C5.50065 13.9533 3.10065 11.5533 3.10065 8.12C3.10065 7.84667 3.32731 7.62 3.60065 7.62C3.87398 7.62 4.10065 7.84667 4.10065 8.12C4.10065 10.9667 6.08731 12.9533 8.93398 12.9533C11.7806 12.9533 13.7673 10.9667 13.7673 8.12C13.7673 7.84667 13.994 7.62 14.2673 7.62C14.5406 7.62 14.7673 7.84667 14.7673 8.12C14.7673 11.5533 12.3673 13.9533 8.93398 13.9533Z" fill="white"/>
</svg>
