<svg width="24" height="24" viewBox="0 0 24 24" fill="none" xmlns="http://www.w3.org/2000/svg">

    <g id="menu">
        <path id="Vector" opacity="0.4"
              d="M17.54 8.81C19.1748 8.81 20.5 7.48476 20.5 5.85C20.5 4.21524 19.1748 2.89 17.54 2.89C15.9053 2.89 14.58 4.21524 14.58 5.85C14.58 7.48476 15.9053 8.81 17.54 8.81Z"
              fill="#1E2029"/>
        <path id="Vector_2"
              d="M6.46 8.81C8.09476 8.81 9.42 7.48476 9.42 5.85C9.42 4.21524 8.09476 2.89 6.46 2.89C4.82524 2.89 3.5 4.21524 3.5 5.85C3.5 7.48476 4.82524 8.81 6.46 8.81Z"
              fill="#1E2029"/>
        <path id="Vector_3"
              d="M17.54 21.11C19.1748 21.11 20.5 19.7848 20.5 18.15C20.5 16.5152 19.1748 15.19 17.54 15.19C15.9053 15.19 14.58 16.5152 14.58 18.15C14.58 19.7848 15.9053 21.11 17.54 21.11Z"
              fill="#1E2029"/>
        <path id="Vector_4" opacity="0.4"
              d="M6.46 21.11C8.09476 21.11 9.42 19.7848 9.42 18.15C9.42 16.5152 8.09476 15.19 6.46 15.19C4.82524 15.19 3.5 16.5152 3.5 18.15C3.5 19.7848 4.82524 21.11 6.46 21.11Z"
              fill="#1E2029"/>
    </g>
</svg>
