<svg width="25" height="24" viewBox="0 0 25 24" fill="none" xmlns="http://www.w3.org/2000/svg">
<g opacity="0.6">
<rect x="0.224792" y="23.3488" width="22.6977" height="24" rx="11.3488" transform="rotate(-90 0.224792 23.3488)" fill="white"/>
<path d="M5.22479 12H5.23479H5.22479ZM12.2248 12H12.2348H12.2248ZM19.2248 12H19.2348H19.2248ZM6.22479 12C6.22479 12.2508 6.11944 12.4914 5.9319 12.6687C5.74436 12.8461 5.49001 12.9457 5.22479 12.9457C4.95958 12.9457 4.70522 12.8461 4.51769 12.6687C4.33015 12.4914 4.22479 12.2508 4.22479 12C4.22479 11.7492 4.33015 11.5086 4.51769 11.3313C4.70522 11.1539 4.95958 11.0543 5.22479 11.0543C5.49001 11.0543 5.74436 11.1539 5.9319 11.3313C6.11944 11.5086 6.22479 11.7492 6.22479 12ZM13.2248 12C13.2248 12.2508 13.1194 12.4914 12.9319 12.6687C12.7444 12.8461 12.49 12.9457 12.2248 12.9457C11.9596 12.9457 11.7052 12.8461 11.5177 12.6687C11.3301 12.4914 11.2248 12.2508 11.2248 12C11.2248 11.7492 11.3301 11.5086 11.5177 11.3313C11.7052 11.1539 11.9596 11.0543 12.2248 11.0543C12.49 11.0543 12.7444 11.1539 12.9319 11.3313C13.1194 11.5086 13.2248 11.7492 13.2248 12ZM20.2248 12C20.2248 12.2508 20.1194 12.4914 19.9319 12.6687C19.7444 12.8461 19.49 12.9457 19.2248 12.9457C18.9596 12.9457 18.7052 12.8461 18.5177 12.6687C18.3301 12.4914 18.2248 12.2508 18.2248 12C18.2248 11.7492 18.3301 11.5086 18.5177 11.3313C18.7052 11.1539 18.9596 11.0543 19.2248 11.0543C19.49 11.0543 19.7444 11.1539 19.9319 11.3313C20.1194 11.5086 20.2248 11.7492 20.2248 12Z" stroke="#1E2029" stroke-width="2" stroke-linecap="round" stroke-linejoin="round"/>
</g>
</svg>
