<svg width="52" height="52" viewBox="0 0 52 52" fill="none" xmlns="http://www.w3.org/2000/svg">
<rect width="52" height="52" rx="16" fill="#FD6EC4"/>
<path d="M31.9083 26.4917C31.775 26.4917 31.6417 26.45 31.525 26.3583C28.1666 23.7667 23.825 23.7667 20.4667 26.3583C20.1917 26.5667 19.8 26.5167 19.5917 26.25C19.3833 25.975 19.4333 25.5833 19.7 25.375C23.525 22.4167 28.4667 22.4167 32.2833 25.375C32.5583 25.5833 32.6083 25.975 32.3917 26.25C32.2833 26.4083 32.1 26.4917 31.9083 26.4917Z" fill="white"/>
<path d="M34.3333 23.5917C34.2 23.5917 34.0667 23.55 33.95 23.4583C29.1167 19.725 22.875 19.725 18.05 23.4583C17.775 23.6667 17.3833 23.6167 17.175 23.35C16.9583 23.0833 17.0083 22.6833 17.2833 22.475C22.575 18.3833 29.4167 18.3833 34.7167 22.475C34.9917 22.6833 35.0417 23.075 34.825 23.35C34.7083 23.5083 34.5167 23.5917 34.3333 23.5917Z" fill="white"/>
<path d="M30.3417 29.5333C30.2083 29.5333 30.075 29.4917 29.9583 29.4C27.5583 27.5417 24.45 27.5417 22.0417 29.4C21.7667 29.6083 21.375 29.5583 21.1667 29.2917C20.9583 29.0167 21.0083 28.625 21.275 28.4167C24.1417 26.2 27.85 26.2 30.7167 28.4167C30.9917 28.625 31.0417 29.0167 30.825 29.2917C30.7083 29.45 30.525 29.5333 30.3417 29.5333Z" fill="white"/>
<path d="M28.1667 32.5833C28.0334 32.5833 27.9 32.5417 27.7834 32.45C26.7 31.6083 25.2917 31.6083 24.2084 32.45C23.9334 32.6583 23.5417 32.6083 23.3334 32.3417C23.125 32.0667 23.175 31.675 23.4417 31.4667C24.9917 30.2667 26.9917 30.2667 28.5417 31.4667C28.8167 31.675 28.8667 32.0667 28.65 32.3417C28.5417 32.4917 28.3584 32.5833 28.1667 32.5833Z" fill="white"/>
</svg>
