<svg width="36" height="40" viewBox="0 0 36 40" fill="none" xmlns="http://www.w3.org/2000/svg">
    <path fill-rule="evenodd" clip-rule="evenodd"
          d="M17.7348 9.24379C19.6155 8.30434 21.8966 7.7917 23.9838 7.61101L26.3297 7.40631C28.8995 7.18541 31.4706 7.32107 34.0434 7.32107H35.454V8.73174C35.454 14.9951 35.454 21.2603 35.454 27.5249V28.2452C35.454 34.7121 30.1661 40 23.6975 40H0V7.32107H1.41007C3.98529 7.32107 6.54731 7.15179 9.12193 7.35169L11.4672 7.52877C13.6955 7.69625 15.7353 8.23711 17.7348 9.24379Z"
          fill="#4D4C4B"/>
    <path fill-rule="evenodd" clip-rule="evenodd"
          d="M1.41007 8.73174V24.8308V27.5249V28.2452V38.5899H11.753H13.3792H23.6975C29.3882 38.5899 34.0434 33.9335 34.0434 28.2452V27.5249C34.0434 21.2969 34.0434 15.2214 34.0434 8.73174C31.5708 8.73174 28.9596 8.67111 26.4522 8.81278L24.1057 9.01507C21.8096 9.29421 19.4865 9.83026 17.7264 10.8459C15.8265 9.74802 13.7543 9.20236 11.361 8.93404L9.01508 8.75575C6.45667 8.63689 3.83402 8.73174 1.41007 8.73174Z"
          fill="#5FB74E"/>
    <path fill-rule="evenodd" clip-rule="evenodd"
          d="M4.33585 38.5899H11.753H13.3792H23.6975C26.2187 38.5899 28.5345 37.6757 30.333 36.1648C28.2326 31.2821 23.3775 27.8652 17.7258 27.8652C11.1773 27.8652 5.7015 32.4526 4.33585 38.5899Z"
          fill="#89C45F"/>
    <path fill-rule="evenodd" clip-rule="evenodd"
          d="M17.7264 38.5899L23.8181 38.4999C26.3057 38.4999 28.57 37.6229 30.3336 36.1654C32.6045 34.2889 34.0434 31.4471 34.0434 28.2452V27.5249C34.0434 21.2969 34.0434 15.2214 34.0434 8.73174C31.5708 8.73174 28.9596 8.67111 26.4522 8.81278L24.1057 9.01507C21.8096 9.2942 19.4865 9.83026 17.7264 10.8459V38.5899Z"
          fill="#4A9E4B"/>
    <path fill-rule="evenodd" clip-rule="evenodd"
          d="M17.7264 38.5899H23.7353C26.2565 38.5899 28.5352 37.6763 30.3336 36.1654C28.256 31.3379 23.2977 27.9421 17.7264 27.8676V38.5899Z"
          fill="#5FB74E"/>
    <path fill-rule="evenodd" clip-rule="evenodd"
          d="M26.4522 7.83552C26.0038 3.43123 22.282 0 17.7636 0C13.2471 0 9.52713 3.40182 9.01508 7.7803L11.361 7.95918C11.7758 4.79688 14.4711 2.35192 17.7546 2.35192C21.0364 2.35192 23.7557 4.8389 24.1057 8.03722L26.4522 7.83552Z"
          fill="#4D4C4B"/>
    <path fill-rule="evenodd" clip-rule="evenodd"
          d="M21.5424 29.2417C20.5201 30.3228 19.4991 31.4045 18.4774 32.4868L17.7258 33.2834L16.9755 32.4868C15.9532 31.4063 14.9321 30.3228 13.9104 29.2417L13.3816 28.6804L13.7681 28.0129C14.5875 26.5998 16.1207 25.8393 17.7258 25.8393C19.3328 25.8393 20.8647 26.5998 21.6847 28.0129L22.0719 28.6804L21.5424 29.2417Z"
          fill="#4D4C4B"/>
    <path fill-rule="evenodd" clip-rule="evenodd"
          d="M20.7897 28.5328C19.7704 29.6145 18.7469 30.695 17.7258 31.7779C16.7047 30.695 15.683 29.6145 14.6614 28.5328C15.3067 27.4204 16.518 26.8706 17.7258 26.873C18.9342 26.8706 20.1456 27.4204 20.7897 28.5328Z"
          fill="#FDF8B4"/>
    <path fill-rule="evenodd" clip-rule="evenodd"
          d="M20.7897 28.5328C19.7704 29.6145 18.7469 30.695 17.7258 31.7779V26.873C18.9342 26.8706 20.1456 27.4204 20.7897 28.5328Z"
          fill="#FCD066"/>
    <path fill-rule="evenodd" clip-rule="evenodd"
          d="M10.0692 12.8011C14.6464 12.8011 18.3585 16.5157 18.3585 21.091C18.3585 25.6682 14.6464 29.381 10.0692 29.381C5.49141 29.381 1.78045 25.6682 1.78045 21.091C1.78045 16.5157 5.49141 12.8011 10.0692 12.8011Z"
          fill="#4D4C4B"/>
    <path fill-rule="evenodd" clip-rule="evenodd"
          d="M10.0692 14.2118C13.8684 14.2118 16.949 17.2924 16.949 21.091C16.949 24.889 13.8684 27.9703 10.0692 27.9703C6.26877 27.9703 3.18991 24.889 3.18991 21.091C3.18991 17.2924 6.26877 14.2118 10.0692 14.2118Z"
          fill="#EEEFEE"/>
    <path fill-rule="evenodd" clip-rule="evenodd"
          d="M10.0692 14.2118C13.2045 14.2118 15.8505 16.3104 16.6795 19.1791C15.8505 22.0467 13.2045 24.1459 10.0692 24.1459C6.93269 24.1459 4.28904 22.0467 3.46005 19.1791C4.28904 16.3104 6.93269 14.2118 10.0692 14.2118Z"
          fill="#FEFEFE"/>
    <path fill-rule="evenodd" clip-rule="evenodd"
          d="M25.3837 12.8011C29.962 12.8011 33.6724 16.5157 33.6724 21.091C33.6724 25.6682 29.962 29.381 25.3837 29.381C20.8059 29.381 17.0937 25.67 17.0937 21.091C17.0937 16.5157 20.8059 12.8011 25.3837 12.8011Z"
          fill="#4D4C4B"/>
    <path fill-rule="evenodd" clip-rule="evenodd"
          d="M25.3837 14.2118C29.1823 14.2118 32.2635 17.2924 32.2635 21.091C32.2635 24.889 29.1823 27.9703 25.3837 27.9703C21.5845 27.9703 18.5044 24.889 18.5044 21.091C18.5044 17.2924 21.5845 14.2118 25.3837 14.2118Z"
          fill="#EEEFEE"/>
    <path fill-rule="evenodd" clip-rule="evenodd"
          d="M25.3837 14.2118C28.5183 14.2118 31.1644 16.3104 31.9922 19.1791C31.165 22.0467 28.5183 24.1459 25.3837 24.1459C22.2472 24.1459 19.6023 22.0467 18.7733 19.1791C19.6023 16.3104 22.2472 14.2118 25.3837 14.2118Z"
          fill="#FEFEFE"/>
    <path fill-rule="evenodd" clip-rule="evenodd"
          d="M10.9336 16.8128C13.387 16.8128 15.3775 18.8021 15.3775 21.2531C15.3775 23.7083 13.387 25.697 10.9336 25.697C8.47843 25.697 6.48968 23.7083 6.48968 21.2531C6.48968 20.4355 6.71239 19.6695 7.09897 19.0104C7.41592 19.795 8.18309 20.3455 9.08291 20.3455C10.2643 20.3455 11.2235 19.3898 11.2235 18.2078C11.2235 17.6754 11.029 17.1904 10.7097 16.8176C10.7835 16.8128 10.8592 16.8128 10.9336 16.8128Z"
          fill="#4D4C4B"/>
    <path fill-rule="evenodd" clip-rule="evenodd"
          d="M24.5174 16.8128C26.9732 16.8128 28.9626 18.8021 28.9626 21.2531C28.9626 23.7083 26.9732 25.697 24.5174 25.697C22.0647 25.697 20.0753 23.7083 20.0753 21.2531C20.0753 20.4355 20.2968 19.6695 20.6822 19.0104C21.001 19.795 21.7699 20.3455 22.6686 20.3455C23.8499 20.3455 24.8074 19.3898 24.8074 18.2078C24.8074 17.6754 24.6153 17.1904 24.2947 16.8176C24.3698 16.8128 24.443 16.8128 24.5174 16.8128Z"
          fill="#4D4C4B"/>
</svg>
