<svg width="52" height="52" viewBox="0 0 52 52" fill="none" xmlns="http://www.w3.org/2000/svg">
<rect y="6.10352e-05" width="52" height="52" rx="16" fill="url(#paint0_linear_2_411)"/>
<path fill-rule="evenodd" clip-rule="evenodd" d="M32.2977 23.7979C32.6215 23.8015 32.9273 23.9274 33.1478 24.1479C33.3683 24.3684 33.4855 24.6655 33.4736 24.9738L33.2184 31.5517C33.2064 31.86 33.0663 32.1543 32.8288 32.3698C32.5914 32.5854 32.2761 32.7045 31.9523 32.701L25.0441 32.6259C24.7242 32.6171 24.4239 32.489 24.2078 32.2691C23.9918 32.0492 23.8774 31.7551 23.8893 31.4502C23.9011 31.1453 24.0382 30.854 24.2711 30.639C24.504 30.424 24.814 30.3025 25.1343 30.3006L29.0944 30.3437L19.4593 20.7085C19.2387 20.488 19.1215 20.1908 19.1335 19.8824C19.1455 19.574 19.2856 19.2797 19.5231 19.0641C19.7606 18.8485 20.0759 18.7294 20.3998 18.7329C20.7237 18.7364 21.0296 18.8623 21.2501 19.0829L30.8853 28.718L31.0316 24.9473C31.0436 24.6389 31.1837 24.3447 31.4212 24.1291C31.6586 23.9136 31.9739 23.7944 32.2977 23.7979Z" fill="white"/>
<defs>
<linearGradient id="paint0_linear_2_411" x1="26" y1="6.10352e-05" x2="26" y2="52.0001" gradientUnits="userSpaceOnUse">
<stop stop-color="#FF7B73"/>
<stop offset="1" stop-color="#F16258"/>
</linearGradient>
</defs>
</svg>
