<svg width="20" height="20" viewBox="0 0 20 20" fill="none" xmlns="http://www.w3.org/2000/svg">
<ellipse opacity="0.1" cx="9.93799" cy="10" rx="9.45736" ry="10" fill="#F82E2E"/>
<path fill-rule="evenodd" clip-rule="evenodd" d="M12.9322 9.05931C13.0907 9.06105 13.2404 9.12268 13.3484 9.23063C13.4563 9.33859 13.5137 9.48403 13.5079 9.63497L13.3829 12.8552C13.377 13.0061 13.3084 13.1502 13.1922 13.2557C13.076 13.3612 12.9216 13.4195 12.7631 13.4178L9.38121 13.381C9.22458 13.3767 9.07755 13.314 8.97181 13.2064C8.86606 13.0987 8.81005 12.9548 8.81584 12.8055C8.82163 12.6562 8.88876 12.5136 9.00277 12.4083C9.11678 12.3031 9.26854 12.2436 9.42537 12.2427L11.364 12.2638L6.64715 7.54691C6.53918 7.43893 6.48181 7.29345 6.48767 7.14248C6.49353 6.9915 6.56213 6.8474 6.67839 6.74186C6.79465 6.63632 6.94903 6.578 7.10759 6.57973C7.26615 6.58145 7.41588 6.64308 7.52386 6.75106L12.2407 11.4679L12.3124 9.62197C12.3182 9.47103 12.3868 9.32696 12.5031 9.22144C12.6193 9.11593 12.7737 9.05761 12.9322 9.05931V9.05931Z" fill="#F82E2E"/>
</svg>
