<svg width="20" height="20" viewBox="0 0 20 20" fill="none" xmlns="http://www.w3.org/2000/svg">
<ellipse opacity="0.1" cx="10.3721" cy="10" rx="9.45736" ry="10" fill="#9664FF"/>
<path fill-rule="evenodd" clip-rule="evenodd" d="M10.1652 6.86575C10.2041 6.71208 10.2992 6.58106 10.4295 6.50151C10.5598 6.42196 10.7147 6.4004 10.86 6.44155L13.9606 7.32001C14.1059 7.36121 14.2298 7.46176 14.3051 7.59954C14.3803 7.73733 14.4007 7.90106 14.3618 8.05475L13.531 11.3332C13.49 11.4844 13.3944 11.6126 13.265 11.6901C13.1355 11.7675 12.9824 11.7881 12.8387 11.7474C12.6949 11.7067 12.5721 11.6079 12.4966 11.4724C12.4211 11.3368 12.3989 11.1753 12.4349 11.0227L12.9112 9.14329L7.21761 12.6191C7.08728 12.6987 6.93239 12.7202 6.78702 12.679C6.64166 12.6378 6.51772 12.5373 6.44247 12.3995C6.36722 12.2617 6.34683 12.0979 6.38578 11.9442C6.42473 11.7905 6.51984 11.6594 6.65017 11.5799L12.3437 8.10406L10.5664 7.60049C10.421 7.55928 10.2971 7.45874 10.2219 7.32095C10.1466 7.18317 10.1263 7.01943 10.1652 6.86575Z" fill="#9664FF"/>
</svg>
